<?xml version="1.0" encoding="utf-8"?>
<!-- Generator: Adobe Illustrator 27.3.1, SVG Export Plug-In . SVG Version: 6.00 Build 0)  -->
<svg version="1.1" id="Layer_1" xmlns="http://www.w3.org/2000/svg" xmlns:xlink="http://www.w3.org/1999/xlink" x="0px" y="0px"
	 viewBox="0 0 122 28.9" style="enable-background:new 0 0 122 28.9;" xml:space="preserve">
<style type="text/css">
	.st0{fill:#FFFFFF;}
</style>
<path d="M10.05,10.1c0-0.56,0.06-1.07,0.18-1.52c0.04-0.18,0.1-0.35,0.16-0.51c0.22-0.57,0.58-1,1.06-1.31
	c0.48-0.3,1.11-0.45,1.89-0.45c0.69,0,1.29,0.11,1.78,0.32c0.49,0.21,0.87,0.54,1.12,0.99c0.26,0.45,0.39,1.02,0.39,1.71h6.48
	c0-1.34-0.26-2.49-0.76-3.46c-0.5-0.96-1.2-1.74-2.1-2.34c-0.89-0.61-1.93-1.05-3.12-1.35c-1.18-0.29-2.45-0.43-3.79-0.43
	c-2.01,0-3.76,0.34-5.25,1.02S5.45,4.48,4.62,5.86C4.14,6.65,3.8,7.55,3.61,8.58c-0.15,0.71-0.22,1.49-0.22,2.32
	c2.51,0,4.34-0.01,6.66-0.64V10.1z"/>
<path class="st0" d="M36.5,4.1c-1.8-1.6-4.2-2.4-7.3-2.4s-5.5,0.8-7.3,2.4S19.3,8,19.3,11s0.9,5.3,2.6,6.9s4.2,2.4,7.3,2.4
	c3.1,0,5.6-0.8,7.3-2.4c1.8-1.6,2.7-3.9,2.7-6.9S38.3,5.7,36.5,4.1z M29.1,15.4c-2.4,0-4.4-1.9-4.4-4.4c0-2.4,1.9-4.4,4.4-4.4
	c2.4,0,4.4,1.9,4.4,4.4c0,1.2-0.3,2.1-1.1,2.9l1.4,1.5H29.1L29.1,15.4z"/>
<path class="st0" d="M49.2,15.3H57v4.5H39.7v-2.2l7.4-11h-7V2.2h16.6v2.1L49.2,15.3z"/>
<path class="st0" d="M71.4,19.8L71,17.2c-0.7,1-1.6,1.7-2.7,2.3c-1.1,0.6-2.3,0.8-3.6,0.8c-2.1,0-3.6-0.6-4.6-1.7s-1.5-2.8-1.5-4.9
	V2.2h6.7v10.7c0,0.8,0.2,1.4,0.6,1.8c0.4,0.4,0.9,0.7,1.7,0.7c0.8,0,1.5-0.3,2-0.8s0.8-1.2,0.8-2V2.2h6.7v17.7L71.4,19.8L71.4,19.8z
	"/>
<path class="st0" d="M94.9,3.5c1,1.1,1.5,2.8,1.5,4.9v11.5h-6.7V9.2c0-0.8-0.2-1.4-0.6-1.8s-0.9-0.7-1.7-0.7c-0.8,0-1.5,0.3-2,0.8
	s-0.8,1.2-0.8,2v10.4h-6.7V2.2h5.5L84,4.8c0.7-0.9,1.6-1.7,2.7-2.2s2.3-0.8,3.6-0.8C92.3,1.7,93.9,2.3,94.9,3.5z"/>
<path class="st0" d="M113.8,3.1c1.7,0.9,2.5,2.4,2.5,4.4v6.9c0,0.4,0.1,0.7,0.3,0.9c0.2,0.3,0.4,0.4,0.8,0.4h1.2v3.8
	c-0.1,0-0.2,0.1-0.5,0.2s-0.7,0.2-1.2,0.3c-0.5,0.1-1.1,0.1-1.8,0.1c-1.3,0-2.4-0.2-3.2-0.6c-0.9-0.4-1.4-0.9-1.7-1.6
	c-0.9,0.7-1.8,1.2-2.8,1.6s-2.3,0.6-3.7,0.6c-4.1,0-6.2-1.6-6.2-5c0-1.7,0.5-3,1.4-3.9s2.3-1.5,4-1.9c1.8-0.3,4-0.5,6.8-0.5V8.1
	c0-0.7-0.2-1.2-0.7-1.6S107.9,6,107.1,6c-0.7,0-1.3,0.1-1.8,0.4s-0.8,0.6-0.8,1.2v0.1h-6.6c0-0.1,0-0.3,0-0.5c0-1.7,0.8-3,2.4-4
	s3.9-1.5,6.9-1.5C109.9,1.7,112.1,2.2,113.8,3.1z M105.5,12.8c-0.9,0.4-1.3,1-1.3,1.7c0,1.1,0.8,1.7,2.3,1.7c0.9,0,1.6-0.2,2.3-0.7
	c0.7-0.5,1-1,1-1.8v-1.5C107.8,12.2,106.4,12.3,105.5,12.8z"/>
<g>
	<path class="st0" d="M8.04,25.45l-0.86-2.36h0.96l0.18,0.72c0.01,0.04,0.03,0.1,0.05,0.18c0.02,0.08,0.04,0.16,0.06,0.25
		s0.04,0.17,0.06,0.25h0.03c0.02-0.07,0.04-0.15,0.06-0.22c0.02-0.07,0.04-0.15,0.06-0.22s0.04-0.15,0.06-0.22l0.19-0.72h0.89
		l0.19,0.73c0.01,0.04,0.03,0.1,0.05,0.18c0.02,0.08,0.04,0.16,0.06,0.25c0.02,0.09,0.04,0.17,0.06,0.24h0.03
		c0.02-0.06,0.03-0.13,0.05-0.21c0.02-0.08,0.04-0.16,0.06-0.24c0.02-0.08,0.04-0.15,0.05-0.21l0.19-0.73h0.87l-0.87,2.36H9.67
		l-0.22-0.8c-0.01-0.05-0.03-0.11-0.05-0.17c-0.02-0.06-0.04-0.13-0.05-0.19c-0.02-0.06-0.03-0.11-0.04-0.16H9.28
		c-0.01,0.04-0.02,0.09-0.04,0.15c-0.02,0.06-0.03,0.12-0.05,0.18c-0.02,0.06-0.04,0.12-0.05,0.18l-0.23,0.8H8.04z"/>
	<path class="st0" d="M12.95,25.5c-0.28,0-0.53-0.04-0.74-0.13c-0.21-0.09-0.37-0.22-0.48-0.41c-0.11-0.18-0.17-0.41-0.17-0.7
		c0-0.28,0.06-0.51,0.17-0.69c0.11-0.18,0.26-0.32,0.46-0.41c0.2-0.09,0.43-0.14,0.7-0.14c0.28,0,0.52,0.04,0.72,0.13
		s0.35,0.22,0.45,0.41c0.1,0.18,0.16,0.41,0.16,0.7v0.15h-1.77c0,0.11,0.02,0.2,0.05,0.28c0.03,0.08,0.08,0.14,0.15,0.18
		c0.07,0.04,0.16,0.06,0.27,0.06c0.08,0,0.15-0.01,0.2-0.03s0.1-0.04,0.13-0.07c0.03-0.03,0.06-0.07,0.07-0.11
		c0.01-0.04,0.02-0.09,0.02-0.13h0.86c0,0.14-0.03,0.27-0.08,0.38c-0.05,0.11-0.13,0.21-0.24,0.29c-0.11,0.08-0.24,0.14-0.4,0.18
		S13.16,25.5,12.95,25.5z M12.46,24h0.87c0-0.06-0.01-0.12-0.03-0.17c-0.02-0.05-0.04-0.09-0.08-0.13s-0.08-0.06-0.12-0.08
		c-0.05-0.02-0.11-0.03-0.17-0.03c-0.1,0-0.18,0.02-0.25,0.05c-0.07,0.03-0.12,0.08-0.15,0.14C12.49,23.84,12.47,23.92,12.46,24z"/>
	<path class="st0" d="M16.21,25.5c-0.15,0-0.29-0.03-0.42-0.09c-0.13-0.06-0.23-0.16-0.31-0.29h-0.03l-0.06,0.33h-0.72v-3.24h0.89
		v1.1h0.03c0.05-0.06,0.1-0.11,0.17-0.15c0.07-0.04,0.14-0.07,0.22-0.09c0.08-0.02,0.16-0.03,0.24-0.03c0.21,0,0.39,0.05,0.54,0.14
		s0.26,0.23,0.34,0.41c0.08,0.18,0.12,0.41,0.12,0.68c0,0.28-0.04,0.51-0.12,0.69c-0.08,0.18-0.19,0.32-0.34,0.41
		S16.42,25.5,16.21,25.5z M15.93,24.84c0.09,0,0.17-0.02,0.22-0.06c0.06-0.04,0.1-0.09,0.12-0.16s0.04-0.15,0.04-0.24v-0.24
		c0-0.09-0.01-0.17-0.04-0.24c-0.03-0.07-0.07-0.12-0.12-0.16s-0.13-0.06-0.22-0.06c-0.07,0-0.13,0.01-0.18,0.04
		c-0.05,0.03-0.09,0.06-0.12,0.11c-0.03,0.05-0.05,0.1-0.07,0.16c-0.02,0.06-0.02,0.13-0.02,0.19v0.15c0,0.09,0.01,0.18,0.04,0.25
		c0.03,0.08,0.07,0.14,0.13,0.18C15.77,24.82,15.84,24.84,15.93,24.84z"/>
	<path class="st0" d="M18.5,26.39V22.2h0.6v4.19H18.5z"/>
	<path class="st0" d="M20.88,26.39c-0.11,0-0.21-0.03-0.3-0.08c-0.09-0.05-0.16-0.12-0.22-0.21c-0.05-0.09-0.08-0.19-0.08-0.29
		c0-0.12,0.04-0.23,0.11-0.32c0.08-0.09,0.16-0.16,0.26-0.21c-0.07-0.05-0.13-0.11-0.17-0.18c-0.04-0.07-0.06-0.15-0.06-0.23
		c0-0.12,0.04-0.23,0.13-0.32s0.19-0.16,0.32-0.19c-0.11-0.07-0.2-0.15-0.27-0.25c-0.07-0.1-0.11-0.2-0.11-0.32
		c0-0.2,0.06-0.35,0.17-0.46c0.11-0.11,0.26-0.19,0.44-0.23c0.18-0.05,0.39-0.07,0.61-0.07c0.09,0,0.17,0,0.23,0.01
		s0.12,0.01,0.16,0.02c0.13-0.08,0.22-0.16,0.27-0.24c0.05-0.08,0.08-0.14,0.08-0.18h0.73c0,0.13-0.02,0.23-0.06,0.32
		c-0.04,0.08-0.11,0.15-0.19,0.2s-0.18,0.09-0.29,0.12c0.09,0.07,0.15,0.14,0.2,0.23s0.07,0.18,0.07,0.28
		c0,0.18-0.05,0.32-0.14,0.43c-0.09,0.11-0.21,0.19-0.36,0.25c-0.15,0.05-0.31,0.08-0.49,0.08h-0.34c-0.1,0-0.17,0.01-0.22,0.04
		c-0.04,0.02-0.06,0.05-0.06,0.09s0.02,0.07,0.06,0.1c0.04,0.03,0.11,0.04,0.23,0.04h0.8c0.27,0,0.48,0.07,0.6,0.21
		c0.13,0.14,0.19,0.32,0.19,0.54c0,0.17-0.05,0.31-0.14,0.43c-0.09,0.12-0.21,0.21-0.36,0.28c-0.15,0.07-0.31,0.1-0.49,0.1H20.88z
		 M21.36,25.89h0.7c0.04,0,0.08-0.01,0.12-0.03s0.06-0.04,0.08-0.08s0.03-0.07,0.03-0.12c0-0.07-0.02-0.12-0.07-0.16
		c-0.05-0.04-0.1-0.06-0.17-0.06h-0.7c-0.07,0-0.12,0.02-0.17,0.06s-0.07,0.09-0.07,0.16s0.02,0.12,0.07,0.17
		S21.3,25.89,21.36,25.89z M21.71,24.09c0.1,0,0.19-0.02,0.25-0.07c0.06-0.05,0.09-0.12,0.09-0.22c0-0.1-0.03-0.18-0.09-0.22
		c-0.06-0.05-0.15-0.07-0.25-0.07c-0.09,0-0.17,0.02-0.24,0.07c-0.07,0.05-0.1,0.12-0.1,0.22c0,0.07,0.01,0.12,0.04,0.17
		s0.07,0.08,0.12,0.1C21.58,24.08,21.64,24.09,21.71,24.09z"/>
	<path class="st0" d="M23.49,25.45v-2.36h0.73l0.06,0.36h0.03c0.04-0.09,0.09-0.17,0.15-0.23c0.06-0.06,0.13-0.11,0.21-0.14
		c0.08-0.03,0.17-0.05,0.26-0.05c0.06,0,0.11,0.01,0.16,0.02c0.05,0.01,0.08,0.02,0.1,0.04v0.75H24.9c-0.1,0-0.18,0.01-0.24,0.04
		c-0.07,0.03-0.12,0.06-0.16,0.11c-0.04,0.05-0.07,0.11-0.09,0.18c-0.02,0.07-0.03,0.15-0.03,0.24v1.05H23.49z"/>
	<path class="st0" d="M26.12,25.5c-0.12,0-0.23-0.01-0.34-0.03c-0.1-0.02-0.19-0.06-0.26-0.11c-0.07-0.05-0.13-0.12-0.17-0.21
		c-0.04-0.08-0.06-0.19-0.06-0.31c0-0.18,0.04-0.32,0.11-0.43s0.18-0.2,0.32-0.25c0.14-0.06,0.31-0.1,0.51-0.12
		c0.2-0.02,0.43-0.03,0.69-0.03v-0.12c0-0.07-0.02-0.12-0.05-0.16c-0.03-0.04-0.07-0.07-0.12-0.09c-0.05-0.02-0.11-0.03-0.17-0.03
		c-0.05,0-0.1,0.01-0.16,0.02s-0.1,0.03-0.13,0.06c-0.03,0.03-0.05,0.07-0.05,0.12v0.02h-0.88c0-0.01,0-0.02,0-0.03
		c0-0.01,0-0.02,0-0.03c0-0.15,0.05-0.27,0.14-0.38c0.09-0.11,0.23-0.19,0.42-0.25c0.18-0.06,0.41-0.09,0.68-0.09
		c0.22,0,0.42,0.02,0.6,0.07c0.19,0.05,0.33,0.13,0.45,0.24c0.11,0.11,0.17,0.26,0.17,0.46v0.92c0,0.05,0.01,0.09,0.04,0.12
		c0.02,0.03,0.06,0.05,0.11,0.05h0.16v0.51c-0.04,0.02-0.09,0.04-0.18,0.06s-0.18,0.03-0.29,0.03c-0.12,0-0.22-0.01-0.31-0.04
		c-0.09-0.02-0.16-0.06-0.22-0.1s-0.09-0.1-0.11-0.16h-0.03c-0.06,0.06-0.14,0.11-0.22,0.15c-0.08,0.04-0.17,0.08-0.28,0.11
		S26.26,25.5,26.12,25.5z M26.49,24.95c0.06,0,0.11-0.01,0.16-0.02c0.05-0.02,0.1-0.04,0.14-0.07c0.04-0.03,0.07-0.06,0.1-0.1
		c0.02-0.04,0.04-0.08,0.04-0.13v-0.2c-0.18,0-0.32,0.01-0.43,0.04c-0.11,0.03-0.19,0.06-0.24,0.11s-0.08,0.1-0.08,0.16
		s0.02,0.11,0.04,0.14c0.03,0.03,0.07,0.06,0.11,0.07C26.39,24.94,26.44,24.95,26.49,24.95z"/>
	<path class="st0" d="M28.41,26.33v-3.24h0.72l0.08,0.33h0.03c0.08-0.14,0.19-0.24,0.31-0.3c0.12-0.06,0.26-0.09,0.41-0.09
		c0.21,0,0.39,0.05,0.54,0.14s0.26,0.23,0.34,0.41c0.08,0.18,0.12,0.41,0.12,0.69c0,0.27-0.04,0.5-0.12,0.68
		c-0.08,0.18-0.19,0.32-0.34,0.41s-0.33,0.14-0.54,0.14c-0.08,0-0.17-0.01-0.24-0.03c-0.08-0.02-0.15-0.05-0.22-0.09
		c-0.07-0.04-0.12-0.09-0.17-0.15H29.3v1.1H28.41z M29.69,24.84c0.09,0,0.17-0.02,0.22-0.06c0.06-0.04,0.1-0.09,0.12-0.16
		c0.03-0.07,0.04-0.15,0.04-0.24v-0.24c0-0.09-0.01-0.17-0.04-0.24s-0.07-0.12-0.12-0.16c-0.06-0.04-0.13-0.06-0.22-0.06
		s-0.17,0.02-0.23,0.07c-0.06,0.04-0.1,0.11-0.13,0.18c-0.03,0.08-0.04,0.16-0.04,0.25v0.15c0,0.07,0.01,0.13,0.02,0.19
		c0.01,0.06,0.04,0.12,0.07,0.16c0.03,0.05,0.07,0.08,0.12,0.11C29.56,24.83,29.62,24.84,29.69,24.84z"/>
	<path class="st0" d="M31.39,25.45v-3.24h0.89v1.13h0.03c0.05-0.07,0.11-0.12,0.19-0.16s0.16-0.08,0.25-0.1
		c0.09-0.02,0.18-0.04,0.26-0.04c0.19,0,0.34,0.04,0.46,0.11c0.12,0.07,0.21,0.17,0.27,0.3c0.06,0.13,0.09,0.29,0.09,0.48v1.53
		h-0.89v-1.42c0-0.05-0.01-0.1-0.02-0.14c-0.01-0.04-0.03-0.08-0.06-0.11c-0.02-0.03-0.05-0.05-0.09-0.07
		c-0.04-0.02-0.08-0.02-0.13-0.02c-0.07,0-0.14,0.02-0.19,0.05s-0.1,0.08-0.13,0.13c-0.03,0.06-0.05,0.12-0.05,0.19v1.39H31.39z"/>
	<path class="st0" d="M34.38,22.81v-0.6h0.89v0.6H34.38z M34.38,25.45v-2.36h0.89v2.36H34.38z"/>
	<path class="st0" d="M37.02,25.5c-0.27,0-0.5-0.05-0.7-0.14c-0.2-0.09-0.35-0.23-0.46-0.41c-0.11-0.18-0.17-0.41-0.17-0.69
		c0-0.28,0.06-0.51,0.17-0.69c0.11-0.18,0.26-0.32,0.46-0.41c0.2-0.09,0.43-0.14,0.7-0.14c0.18,0,0.35,0.02,0.51,0.06
		c0.16,0.04,0.3,0.1,0.42,0.18c0.12,0.08,0.21,0.19,0.28,0.31s0.1,0.28,0.1,0.46h-0.86c0-0.09-0.02-0.17-0.05-0.23
		s-0.08-0.1-0.15-0.13c-0.07-0.03-0.14-0.04-0.24-0.04c-0.1,0-0.19,0.02-0.25,0.06c-0.06,0.04-0.11,0.1-0.14,0.17
		s-0.04,0.17-0.04,0.27v0.25c0,0.1,0.02,0.19,0.05,0.27c0.03,0.07,0.08,0.13,0.15,0.17c0.07,0.04,0.15,0.06,0.26,0.06
		c0.1,0,0.18-0.01,0.25-0.04s0.12-0.07,0.15-0.13c0.04-0.06,0.05-0.14,0.05-0.24h0.83c0,0.18-0.03,0.33-0.1,0.46
		c-0.07,0.13-0.16,0.24-0.28,0.32c-0.12,0.08-0.26,0.14-0.42,0.18C37.37,25.48,37.2,25.5,37.02,25.5z"/>
	<path class="st0" d="M40.48,25.5c-0.21,0-0.39-0.05-0.54-0.14s-0.26-0.23-0.34-0.41c-0.08-0.18-0.12-0.41-0.12-0.69
		c0-0.27,0.04-0.5,0.12-0.68c0.08-0.18,0.19-0.32,0.34-0.41s0.33-0.14,0.54-0.14c0.08,0,0.16,0.01,0.24,0.03s0.15,0.05,0.22,0.09
		c0.07,0.04,0.12,0.09,0.17,0.15h0.03v-1.1h0.89v3.24h-0.72l-0.06-0.33h-0.03c-0.08,0.13-0.19,0.23-0.31,0.29
		C40.78,25.47,40.64,25.5,40.48,25.5z M40.76,24.84c0.09,0,0.17-0.02,0.23-0.07c0.06-0.04,0.1-0.11,0.13-0.18
		c0.03-0.08,0.04-0.16,0.04-0.25V24.2c0-0.07-0.01-0.13-0.02-0.19c-0.01-0.06-0.04-0.12-0.07-0.16c-0.03-0.05-0.07-0.08-0.12-0.11
		c-0.05-0.03-0.11-0.04-0.18-0.04c-0.09,0-0.17,0.02-0.22,0.06s-0.1,0.09-0.12,0.16c-0.03,0.07-0.04,0.15-0.04,0.24v0.24
		c0,0.09,0.01,0.17,0.04,0.24s0.07,0.12,0.12,0.16C40.59,24.83,40.67,24.84,40.76,24.84z"/>
	<path class="st0" d="M43.85,25.5c-0.28,0-0.53-0.04-0.74-0.13c-0.21-0.09-0.37-0.22-0.48-0.41c-0.11-0.18-0.17-0.41-0.17-0.7
		c0-0.28,0.06-0.51,0.17-0.69c0.11-0.18,0.26-0.32,0.46-0.41c0.2-0.09,0.43-0.14,0.7-0.14c0.28,0,0.52,0.04,0.72,0.13
		s0.35,0.22,0.45,0.41c0.1,0.18,0.16,0.41,0.16,0.7v0.15h-1.77c0,0.11,0.02,0.2,0.05,0.28c0.03,0.08,0.08,0.14,0.15,0.18
		c0.07,0.04,0.16,0.06,0.27,0.06c0.08,0,0.15-0.01,0.2-0.03s0.1-0.04,0.13-0.07c0.03-0.03,0.06-0.07,0.07-0.11
		c0.01-0.04,0.02-0.09,0.02-0.13h0.86c0,0.14-0.03,0.27-0.08,0.38c-0.05,0.11-0.13,0.21-0.24,0.29c-0.11,0.08-0.24,0.14-0.4,0.18
		S44.06,25.5,43.85,25.5z M43.36,24h0.87c0-0.06-0.01-0.12-0.03-0.17c-0.02-0.05-0.04-0.09-0.08-0.13s-0.08-0.06-0.12-0.08
		c-0.05-0.02-0.11-0.03-0.17-0.03c-0.1,0-0.18,0.02-0.25,0.05c-0.07,0.03-0.12,0.08-0.15,0.14C43.4,23.84,43.37,23.92,43.36,24z"/>
	<path class="st0" d="M46.65,25.5c-0.14,0-0.29-0.01-0.43-0.04s-0.27-0.07-0.39-0.13c-0.12-0.06-0.21-0.14-0.28-0.23
		c-0.07-0.1-0.11-0.21-0.11-0.35c0-0.01,0-0.02,0-0.03c0-0.01,0-0.02,0-0.03h0.83c0,0.01,0,0.02,0,0.03s0,0.02,0,0.02
		c0,0.05,0.02,0.1,0.06,0.13s0.08,0.06,0.14,0.08c0.06,0.02,0.12,0.03,0.19,0.03c0.04,0,0.09,0,0.15-0.01s0.11-0.02,0.15-0.04
		c0.04-0.02,0.07-0.06,0.07-0.12c0-0.05-0.03-0.09-0.08-0.11s-0.12-0.05-0.21-0.06c-0.08-0.02-0.18-0.03-0.28-0.05
		c-0.11-0.02-0.22-0.04-0.33-0.07s-0.22-0.07-0.31-0.12c-0.1-0.05-0.17-0.12-0.23-0.21c-0.06-0.09-0.09-0.2-0.09-0.33
		c0-0.16,0.03-0.29,0.1-0.39c0.06-0.1,0.15-0.19,0.26-0.25c0.11-0.06,0.24-0.1,0.38-0.13c0.14-0.02,0.29-0.04,0.44-0.04
		c0.13,0,0.27,0.01,0.4,0.04c0.13,0.03,0.25,0.07,0.36,0.12c0.11,0.06,0.2,0.13,0.26,0.22c0.07,0.09,0.1,0.2,0.1,0.33
		c0,0.01,0,0.02,0,0.03s0,0.02,0,0.03h-0.82v-0.04c0-0.04-0.02-0.08-0.05-0.11s-0.07-0.05-0.12-0.06c-0.05-0.01-0.1-0.02-0.15-0.02
		c-0.02,0-0.04,0-0.08,0c-0.04,0-0.07,0.01-0.11,0.02c-0.04,0.01-0.07,0.02-0.09,0.04c-0.03,0.02-0.04,0.05-0.04,0.09
		c0,0.04,0.02,0.06,0.05,0.09s0.08,0.04,0.14,0.05s0.12,0.03,0.19,0.04c0.11,0.02,0.24,0.04,0.37,0.06c0.13,0.02,0.26,0.05,0.37,0.1
		s0.21,0.12,0.29,0.21c0.07,0.09,0.11,0.23,0.11,0.4c0,0.16-0.03,0.3-0.1,0.4c-0.07,0.11-0.15,0.19-0.27,0.26s-0.24,0.11-0.39,0.13
		C46.96,25.49,46.81,25.5,46.65,25.5z"/>
	<path class="st0" d="M48.29,22.81v-0.6h0.89v0.6H48.29z M48.29,25.45v-2.36h0.89v2.36H48.29z"/>
	<path class="st0" d="M50.09,26.39c-0.11,0-0.21-0.03-0.3-0.08c-0.09-0.05-0.16-0.12-0.22-0.21c-0.05-0.09-0.08-0.19-0.08-0.29
		c0-0.12,0.04-0.23,0.11-0.32c0.08-0.09,0.16-0.16,0.26-0.21c-0.07-0.05-0.13-0.11-0.17-0.18c-0.04-0.07-0.06-0.15-0.06-0.23
		c0-0.12,0.04-0.23,0.13-0.32s0.19-0.16,0.32-0.19c-0.11-0.07-0.2-0.15-0.27-0.25c-0.07-0.1-0.11-0.2-0.11-0.32
		c0-0.2,0.06-0.35,0.17-0.46c0.11-0.11,0.26-0.19,0.44-0.23c0.18-0.05,0.39-0.07,0.61-0.07c0.09,0,0.17,0,0.23,0.01
		s0.12,0.01,0.16,0.02c0.13-0.08,0.22-0.16,0.27-0.24c0.05-0.08,0.08-0.14,0.08-0.18h0.73c0,0.13-0.02,0.23-0.06,0.32
		c-0.04,0.08-0.11,0.15-0.19,0.2s-0.18,0.09-0.29,0.12c0.09,0.07,0.15,0.14,0.2,0.23s0.07,0.18,0.07,0.28
		c0,0.18-0.05,0.32-0.14,0.43c-0.09,0.11-0.21,0.19-0.36,0.25c-0.15,0.05-0.31,0.08-0.49,0.08h-0.34c-0.1,0-0.17,0.01-0.22,0.04
		c-0.04,0.02-0.06,0.05-0.06,0.09s0.02,0.07,0.06,0.1c0.04,0.03,0.11,0.04,0.23,0.04h0.8c0.27,0,0.48,0.07,0.6,0.21
		c0.13,0.14,0.19,0.32,0.19,0.54c0,0.17-0.05,0.31-0.14,0.43c-0.09,0.12-0.21,0.21-0.36,0.28c-0.15,0.07-0.31,0.1-0.49,0.1H50.09z
		 M50.57,25.89h0.7c0.04,0,0.08-0.01,0.12-0.03s0.06-0.04,0.08-0.08s0.03-0.07,0.03-0.12c0-0.07-0.02-0.12-0.07-0.16
		c-0.05-0.04-0.1-0.06-0.17-0.06h-0.7c-0.07,0-0.12,0.02-0.17,0.06s-0.07,0.09-0.07,0.16s0.02,0.12,0.07,0.17
		S50.5,25.89,50.57,25.89z M50.91,24.09c0.1,0,0.19-0.02,0.25-0.07c0.06-0.05,0.09-0.12,0.09-0.22c0-0.1-0.03-0.18-0.09-0.22
		c-0.06-0.05-0.15-0.07-0.25-0.07c-0.09,0-0.17,0.02-0.24,0.07c-0.07,0.05-0.1,0.12-0.1,0.22c0,0.07,0.01,0.12,0.04,0.17
		s0.07,0.08,0.12,0.1C50.79,24.08,50.84,24.09,50.91,24.09z"/>
	<path class="st0" d="M52.69,25.45v-2.36h0.73l0.06,0.36h0.03c0.06-0.09,0.14-0.17,0.22-0.23c0.08-0.06,0.18-0.11,0.28-0.14
		c0.1-0.03,0.21-0.04,0.31-0.04c0.19,0,0.34,0.04,0.46,0.11c0.12,0.07,0.21,0.17,0.27,0.3c0.06,0.13,0.09,0.29,0.09,0.48v1.53h-0.89
		v-1.42c0-0.05-0.01-0.1-0.02-0.14c-0.01-0.04-0.03-0.08-0.06-0.11c-0.02-0.03-0.05-0.05-0.09-0.07c-0.04-0.02-0.08-0.02-0.13-0.02
		c-0.07,0-0.14,0.02-0.19,0.05s-0.1,0.08-0.13,0.13c-0.03,0.06-0.05,0.12-0.05,0.19v1.39H52.69z"/>
	<path class="st0" d="M56.54,26.39V22.2h0.6v4.19H56.54z"/>
	<path class="st0" d="M58.55,26.33v-3.24h0.72l0.08,0.33h0.03c0.08-0.14,0.19-0.24,0.31-0.3c0.12-0.06,0.26-0.09,0.41-0.09
		c0.21,0,0.39,0.05,0.54,0.14s0.26,0.23,0.34,0.41c0.08,0.18,0.12,0.41,0.12,0.69c0,0.27-0.04,0.5-0.12,0.68
		c-0.08,0.18-0.19,0.32-0.34,0.41s-0.33,0.14-0.54,0.14c-0.08,0-0.17-0.01-0.24-0.03c-0.08-0.02-0.15-0.05-0.22-0.09
		c-0.07-0.04-0.12-0.09-0.17-0.15h-0.03v1.1H58.55z M59.83,24.84c0.09,0,0.17-0.02,0.22-0.06c0.06-0.04,0.1-0.09,0.12-0.16
		c0.03-0.07,0.04-0.15,0.04-0.24v-0.24c0-0.09-0.01-0.17-0.04-0.24s-0.07-0.12-0.12-0.16c-0.06-0.04-0.13-0.06-0.22-0.06
		s-0.17,0.02-0.23,0.07c-0.06,0.04-0.1,0.11-0.13,0.18c-0.03,0.08-0.04,0.16-0.04,0.25v0.15c0,0.07,0.01,0.13,0.02,0.19
		c0.01,0.06,0.04,0.12,0.07,0.16c0.03,0.05,0.07,0.08,0.12,0.11C59.7,24.83,59.76,24.84,59.83,24.84z"/>
	<path class="st0" d="M61.53,25.45v-2.36h0.73l0.06,0.36h0.03c0.04-0.09,0.09-0.17,0.15-0.23c0.06-0.06,0.13-0.11,0.21-0.14
		c0.08-0.03,0.17-0.05,0.25-0.05c0.06,0,0.11,0.01,0.16,0.02c0.05,0.01,0.08,0.02,0.1,0.04v0.75h-0.29c-0.1,0-0.18,0.01-0.24,0.04
		c-0.07,0.03-0.12,0.06-0.16,0.11c-0.04,0.05-0.07,0.11-0.09,0.18s-0.03,0.15-0.03,0.24v1.05H61.53z"/>
	<path class="st0" d="M63.52,22.81v-0.6h0.89v0.6H63.52z M63.52,25.45v-2.36h0.89v2.36H63.52z"/>
	<path class="st0" d="M64.94,25.45v-2.36h0.73l0.06,0.36h0.03c0.06-0.09,0.14-0.17,0.22-0.23c0.08-0.06,0.18-0.11,0.28-0.14
		c0.1-0.03,0.21-0.04,0.31-0.04c0.19,0,0.34,0.04,0.46,0.11c0.12,0.07,0.21,0.17,0.27,0.3s0.09,0.29,0.09,0.48v1.53H66.5v-1.42
		c0-0.05-0.01-0.1-0.02-0.14c-0.01-0.04-0.03-0.08-0.06-0.11c-0.02-0.03-0.05-0.05-0.09-0.07c-0.04-0.02-0.08-0.02-0.13-0.02
		c-0.07,0-0.14,0.02-0.19,0.05c-0.06,0.03-0.1,0.08-0.13,0.13c-0.03,0.06-0.05,0.12-0.05,0.19v1.39H64.94z"/>
	<path class="st0" d="M68.93,25.5c-0.16,0-0.3-0.02-0.43-0.06c-0.12-0.04-0.22-0.1-0.29-0.19c-0.07-0.09-0.1-0.22-0.1-0.38v-1.18
		h-0.33v-0.6h0.37l0.19-0.72H69v0.72h0.5v0.6H69v0.9c0,0.1,0.02,0.18,0.05,0.23c0.03,0.05,0.1,0.08,0.2,0.08h0.25v0.52
		c-0.05,0.01-0.11,0.03-0.18,0.04s-0.14,0.02-0.21,0.03C69.04,25.5,68.98,25.5,68.93,25.5z"/>
	<path class="st0" d="M69.91,22.81v-0.6h0.89v0.6H69.91z M69.91,25.45v-2.36h0.89v2.36H69.91z"/>
	<path class="st0" d="M71.34,25.45v-2.36h0.73l0.06,0.36h0.03c0.06-0.09,0.14-0.17,0.22-0.23c0.08-0.06,0.18-0.11,0.28-0.14
		c0.1-0.03,0.21-0.04,0.31-0.04c0.19,0,0.34,0.04,0.46,0.11c0.12,0.07,0.21,0.17,0.27,0.3s0.09,0.29,0.09,0.48v1.53H72.9v-1.42
		c0-0.05-0.01-0.1-0.02-0.14c-0.01-0.04-0.03-0.08-0.06-0.11c-0.02-0.03-0.05-0.05-0.09-0.07c-0.04-0.02-0.08-0.02-0.13-0.02
		c-0.07,0-0.14,0.02-0.19,0.05c-0.06,0.03-0.1,0.08-0.13,0.13c-0.03,0.06-0.05,0.12-0.05,0.19v1.39H71.34z"/>
	<path class="st0" d="M74.69,26.39c-0.11,0-0.21-0.03-0.3-0.08s-0.16-0.12-0.22-0.21s-0.08-0.19-0.08-0.29
		c0-0.12,0.04-0.23,0.11-0.32c0.08-0.09,0.16-0.16,0.26-0.21c-0.07-0.05-0.13-0.11-0.17-0.18c-0.04-0.07-0.06-0.15-0.06-0.23
		c0-0.12,0.04-0.23,0.13-0.32s0.2-0.16,0.32-0.19c-0.11-0.07-0.2-0.15-0.27-0.25s-0.11-0.2-0.11-0.32c0-0.2,0.05-0.35,0.17-0.46
		c0.11-0.11,0.26-0.19,0.44-0.23c0.19-0.05,0.39-0.07,0.61-0.07c0.09,0,0.17,0,0.23,0.01c0.06,0,0.12,0.01,0.16,0.02
		c0.13-0.08,0.22-0.16,0.27-0.24c0.05-0.08,0.08-0.14,0.08-0.18H77c0,0.13-0.02,0.23-0.07,0.32c-0.04,0.08-0.11,0.15-0.19,0.2
		s-0.18,0.09-0.29,0.12c0.09,0.07,0.15,0.14,0.2,0.23c0.05,0.09,0.07,0.18,0.07,0.28c0,0.18-0.05,0.32-0.14,0.43
		c-0.09,0.11-0.21,0.19-0.36,0.25s-0.31,0.08-0.49,0.08H75.4c-0.1,0-0.17,0.01-0.22,0.04c-0.04,0.02-0.06,0.05-0.06,0.09
		s0.02,0.07,0.06,0.1c0.04,0.03,0.11,0.04,0.23,0.04h0.81c0.27,0,0.48,0.07,0.6,0.21S77,25.36,77,25.58c0,0.17-0.05,0.31-0.14,0.43
		c-0.09,0.12-0.21,0.21-0.36,0.28c-0.15,0.07-0.31,0.1-0.49,0.1H74.69z M75.17,25.89h0.7c0.04,0,0.08-0.01,0.12-0.03
		c0.04-0.02,0.06-0.04,0.09-0.08c0.02-0.03,0.03-0.07,0.03-0.12c0-0.07-0.02-0.12-0.07-0.16c-0.05-0.04-0.1-0.06-0.17-0.06h-0.7
		c-0.07,0-0.12,0.02-0.17,0.06s-0.07,0.09-0.07,0.16s0.02,0.12,0.07,0.17S75.11,25.89,75.17,25.89z M75.52,24.09
		c0.1,0,0.19-0.02,0.25-0.07c0.06-0.05,0.09-0.12,0.09-0.22c0-0.1-0.03-0.18-0.09-0.22c-0.06-0.05-0.15-0.07-0.25-0.07
		c-0.09,0-0.17,0.02-0.24,0.07c-0.07,0.05-0.1,0.12-0.1,0.22c0,0.07,0.01,0.12,0.04,0.17c0.03,0.04,0.07,0.08,0.12,0.1
		C75.39,24.08,75.45,24.09,75.52,24.09z"/>
	<path class="st0" d="M78.17,26.39V22.2h0.6v4.19H78.17z"/>
	<path class="st0" d="M81.06,25.5c-0.21,0-0.39-0.05-0.54-0.14c-0.15-0.09-0.26-0.23-0.34-0.41s-0.12-0.41-0.12-0.69
		c0-0.27,0.04-0.5,0.12-0.68s0.19-0.32,0.34-0.41c0.15-0.09,0.33-0.14,0.54-0.14c0.08,0,0.17,0.01,0.24,0.03s0.15,0.05,0.22,0.09
		c0.07,0.04,0.12,0.09,0.17,0.15h0.03v-1.1h0.89v3.24h-0.72l-0.06-0.33h-0.03c-0.08,0.13-0.19,0.23-0.31,0.29
		C81.35,25.47,81.21,25.5,81.06,25.5z M81.34,24.84c0.09,0,0.17-0.02,0.23-0.07c0.06-0.04,0.1-0.11,0.13-0.18
		c0.03-0.08,0.04-0.16,0.04-0.25V24.2c0-0.07-0.01-0.13-0.02-0.19c-0.01-0.06-0.04-0.12-0.07-0.16c-0.03-0.05-0.07-0.08-0.12-0.11
		c-0.05-0.03-0.11-0.04-0.18-0.04c-0.09,0-0.17,0.02-0.22,0.06s-0.1,0.09-0.12,0.16c-0.03,0.07-0.04,0.15-0.04,0.24v0.24
		c0,0.09,0.01,0.17,0.04,0.24s0.07,0.12,0.12,0.16C81.17,24.83,81.24,24.84,81.34,24.84z"/>
	<path class="st0" d="M83.15,22.81v-0.6h0.89v0.6H83.15z M83.15,25.45v-2.36h0.89v2.36H83.15z"/>
	<path class="st0" d="M84.95,26.39c-0.11,0-0.21-0.03-0.3-0.08s-0.16-0.12-0.22-0.21s-0.08-0.19-0.08-0.29
		c0-0.12,0.04-0.23,0.11-0.32c0.08-0.09,0.16-0.16,0.26-0.21c-0.07-0.05-0.13-0.11-0.17-0.18c-0.04-0.07-0.06-0.15-0.06-0.23
		c0-0.12,0.04-0.23,0.13-0.32s0.2-0.16,0.32-0.19c-0.11-0.07-0.2-0.15-0.27-0.25s-0.11-0.2-0.11-0.32c0-0.2,0.05-0.35,0.17-0.46
		c0.11-0.11,0.26-0.19,0.44-0.23c0.19-0.05,0.39-0.07,0.61-0.07c0.09,0,0.17,0,0.23,0.01c0.06,0,0.12,0.01,0.16,0.02
		c0.13-0.08,0.22-0.16,0.27-0.24c0.05-0.08,0.08-0.14,0.08-0.18h0.73c0,0.13-0.02,0.23-0.07,0.32c-0.04,0.08-0.11,0.15-0.19,0.2
		s-0.18,0.09-0.29,0.12c0.09,0.07,0.15,0.14,0.2,0.23c0.05,0.09,0.07,0.18,0.07,0.28c0,0.18-0.05,0.32-0.14,0.43
		c-0.09,0.11-0.21,0.19-0.36,0.25s-0.31,0.08-0.49,0.08h-0.34c-0.1,0-0.17,0.01-0.22,0.04c-0.04,0.02-0.06,0.05-0.06,0.09
		s0.02,0.07,0.06,0.1c0.04,0.03,0.11,0.04,0.23,0.04h0.81c0.27,0,0.48,0.07,0.6,0.21s0.19,0.32,0.19,0.54
		c0,0.17-0.05,0.31-0.14,0.43c-0.09,0.12-0.21,0.21-0.36,0.28c-0.15,0.07-0.31,0.1-0.49,0.1H84.95z M85.43,25.89h0.7
		c0.04,0,0.08-0.01,0.12-0.03c0.04-0.02,0.06-0.04,0.09-0.08c0.02-0.03,0.03-0.07,0.03-0.12c0-0.07-0.02-0.12-0.07-0.16
		c-0.05-0.04-0.1-0.06-0.17-0.06h-0.7c-0.07,0-0.12,0.02-0.17,0.06s-0.07,0.09-0.07,0.16s0.02,0.12,0.07,0.17
		S85.37,25.89,85.43,25.89z M85.78,24.09c0.1,0,0.19-0.02,0.25-0.07c0.06-0.05,0.09-0.12,0.09-0.22c0-0.1-0.03-0.18-0.09-0.22
		c-0.06-0.05-0.15-0.07-0.25-0.07c-0.09,0-0.17,0.02-0.24,0.07c-0.07,0.05-0.1,0.12-0.1,0.22c0,0.07,0.01,0.12,0.04,0.17
		c0.03,0.04,0.07,0.08,0.12,0.1C85.65,24.08,85.71,24.09,85.78,24.09z"/>
	<path class="st0" d="M87.56,22.81v-0.6h0.89v0.6H87.56z M87.56,25.45v-2.36h0.89v2.36H87.56z"/>
	<path class="st0" d="M89.99,25.5c-0.16,0-0.3-0.02-0.43-0.06c-0.12-0.04-0.22-0.1-0.29-0.19c-0.07-0.09-0.1-0.22-0.1-0.38v-1.18
		h-0.33v-0.6h0.37l0.19-0.72h0.66v0.72h0.5v0.6h-0.5v0.9c0,0.1,0.02,0.18,0.05,0.23c0.03,0.05,0.1,0.08,0.2,0.08h0.25v0.52
		c-0.05,0.01-0.11,0.03-0.18,0.04s-0.14,0.02-0.21,0.03C90.1,25.5,90.04,25.5,89.99,25.5z"/>
	<path class="st0" d="M91.67,25.5c-0.12,0-0.23-0.01-0.33-0.03c-0.1-0.02-0.19-0.06-0.26-0.11c-0.08-0.05-0.13-0.12-0.17-0.21
		s-0.06-0.19-0.06-0.31c0-0.18,0.04-0.32,0.11-0.43c0.07-0.11,0.18-0.2,0.32-0.25c0.14-0.06,0.31-0.1,0.51-0.12
		c0.2-0.02,0.43-0.03,0.69-0.03v-0.12c0-0.07-0.02-0.12-0.05-0.16c-0.03-0.04-0.07-0.07-0.12-0.09c-0.05-0.02-0.11-0.03-0.17-0.03
		c-0.05,0-0.1,0.01-0.16,0.02s-0.1,0.03-0.13,0.06c-0.03,0.03-0.05,0.07-0.05,0.12v0.02h-0.88c0-0.01,0-0.02,0-0.03
		c0-0.01,0-0.02,0-0.03c0-0.15,0.05-0.27,0.14-0.38s0.23-0.19,0.42-0.25s0.41-0.09,0.68-0.09c0.22,0,0.42,0.02,0.6,0.07
		c0.18,0.05,0.33,0.13,0.45,0.24c0.11,0.11,0.17,0.26,0.17,0.46v0.92c0,0.05,0.01,0.09,0.04,0.12c0.02,0.03,0.06,0.05,0.11,0.05
		h0.16v0.51c-0.04,0.02-0.09,0.04-0.18,0.06s-0.18,0.03-0.29,0.03c-0.12,0-0.22-0.01-0.31-0.04c-0.09-0.02-0.16-0.06-0.22-0.1
		c-0.06-0.04-0.09-0.1-0.11-0.16h-0.03c-0.06,0.06-0.13,0.11-0.22,0.15c-0.08,0.04-0.18,0.08-0.28,0.11
		C91.92,25.49,91.8,25.5,91.67,25.5z M92.03,24.95c0.06,0,0.11-0.01,0.16-0.02c0.05-0.02,0.1-0.04,0.14-0.07
		c0.04-0.03,0.07-0.06,0.1-0.1c0.02-0.04,0.04-0.08,0.04-0.13v-0.2c-0.18,0-0.32,0.01-0.43,0.04c-0.11,0.03-0.19,0.06-0.24,0.11
		c-0.05,0.04-0.08,0.1-0.08,0.16s0.01,0.11,0.04,0.14c0.03,0.03,0.07,0.06,0.11,0.07C91.93,24.94,91.98,24.95,92.03,24.95z"/>
	<path class="st0" d="M93.95,25.45v-3.24h0.89v3.24H93.95z"/>
	<path class="st0" d="M97.27,25.5c-0.14,0-0.29-0.01-0.43-0.04s-0.27-0.07-0.39-0.13c-0.12-0.06-0.21-0.14-0.28-0.23
		c-0.07-0.1-0.11-0.21-0.11-0.35c0-0.01,0-0.02,0-0.03c0-0.01,0-0.02,0-0.03h0.83c0,0.01,0,0.02,0,0.03s0,0.02,0,0.02
		c0,0.05,0.02,0.1,0.06,0.13s0.08,0.06,0.14,0.08c0.06,0.02,0.12,0.03,0.19,0.03c0.04,0,0.09,0,0.15-0.01
		c0.06-0.01,0.11-0.02,0.15-0.04c0.04-0.02,0.07-0.06,0.07-0.12c0-0.05-0.03-0.09-0.08-0.11s-0.12-0.05-0.21-0.06
		c-0.08-0.02-0.18-0.03-0.28-0.05c-0.11-0.02-0.22-0.04-0.33-0.07c-0.11-0.03-0.22-0.07-0.31-0.12c-0.1-0.05-0.17-0.12-0.23-0.21
		c-0.06-0.09-0.09-0.2-0.09-0.33c0-0.16,0.03-0.29,0.1-0.39c0.06-0.1,0.15-0.19,0.26-0.25c0.11-0.06,0.24-0.1,0.38-0.13
		c0.14-0.02,0.29-0.04,0.44-0.04c0.13,0,0.27,0.01,0.4,0.04c0.13,0.03,0.25,0.07,0.36,0.12c0.11,0.06,0.2,0.13,0.26,0.22
		c0.07,0.09,0.1,0.2,0.1,0.33c0,0.01,0,0.02,0,0.03s0,0.02,0,0.03h-0.82v-0.04c0-0.04-0.02-0.08-0.05-0.11
		c-0.03-0.03-0.07-0.05-0.12-0.06c-0.05-0.01-0.1-0.02-0.15-0.02c-0.02,0-0.04,0-0.08,0c-0.04,0-0.07,0.01-0.11,0.02
		c-0.04,0.01-0.07,0.02-0.09,0.04c-0.03,0.02-0.04,0.05-0.04,0.09c0,0.04,0.02,0.06,0.05,0.09s0.08,0.04,0.14,0.05
		c0.06,0.01,0.12,0.03,0.2,0.04c0.11,0.02,0.24,0.04,0.37,0.06c0.13,0.02,0.26,0.05,0.37,0.1c0.12,0.05,0.21,0.12,0.29,0.21
		s0.11,0.23,0.11,0.4c0,0.16-0.03,0.3-0.1,0.4c-0.07,0.11-0.16,0.19-0.27,0.26s-0.24,0.11-0.39,0.13
		C97.59,25.49,97.44,25.5,97.27,25.5z"/>
	<path class="st0" d="M98.92,22.81v-0.6h0.89v0.6H98.92z M98.92,25.45v-2.36h0.89v2.36H98.92z"/>
	<path class="st0" d="M100.71,26.39c-0.11,0-0.21-0.03-0.3-0.08s-0.16-0.12-0.22-0.21s-0.08-0.19-0.08-0.29
		c0-0.12,0.04-0.23,0.11-0.32c0.08-0.09,0.16-0.16,0.26-0.21c-0.07-0.05-0.13-0.11-0.17-0.18c-0.04-0.07-0.06-0.15-0.06-0.23
		c0-0.12,0.04-0.23,0.13-0.32s0.2-0.16,0.32-0.19c-0.11-0.07-0.2-0.15-0.27-0.25s-0.11-0.2-0.11-0.32c0-0.2,0.05-0.35,0.17-0.46
		c0.11-0.11,0.26-0.19,0.44-0.23c0.19-0.05,0.39-0.07,0.61-0.07c0.09,0,0.17,0,0.23,0.01c0.06,0,0.12,0.01,0.16,0.02
		c0.13-0.08,0.22-0.16,0.27-0.24c0.05-0.08,0.08-0.14,0.08-0.18h0.73c0,0.13-0.02,0.23-0.07,0.32c-0.04,0.08-0.11,0.15-0.19,0.2
		s-0.18,0.09-0.29,0.12c0.09,0.07,0.15,0.14,0.2,0.23c0.05,0.09,0.07,0.18,0.07,0.28c0,0.18-0.05,0.32-0.14,0.43
		c-0.09,0.11-0.21,0.19-0.36,0.25s-0.31,0.08-0.49,0.08h-0.34c-0.1,0-0.17,0.01-0.22,0.04c-0.04,0.02-0.06,0.05-0.06,0.09
		s0.02,0.07,0.06,0.1c0.04,0.03,0.11,0.04,0.23,0.04h0.81c0.27,0,0.48,0.07,0.6,0.21s0.19,0.32,0.19,0.54
		c0,0.17-0.05,0.31-0.14,0.43c-0.09,0.12-0.21,0.21-0.36,0.28c-0.15,0.07-0.31,0.1-0.49,0.1H100.71z M101.2,25.89h0.7
		c0.04,0,0.08-0.01,0.12-0.03c0.04-0.02,0.06-0.04,0.09-0.08c0.02-0.03,0.03-0.07,0.03-0.12c0-0.07-0.02-0.12-0.07-0.16
		c-0.05-0.04-0.1-0.06-0.17-0.06h-0.7c-0.07,0-0.12,0.02-0.17,0.06s-0.07,0.09-0.07,0.16s0.02,0.12,0.07,0.17
		S101.13,25.89,101.2,25.89z M101.54,24.09c0.1,0,0.19-0.02,0.25-0.07c0.06-0.05,0.09-0.12,0.09-0.22c0-0.1-0.03-0.18-0.09-0.22
		c-0.06-0.05-0.15-0.07-0.25-0.07c-0.09,0-0.17,0.02-0.24,0.07c-0.07,0.05-0.1,0.12-0.1,0.22c0,0.07,0.01,0.12,0.04,0.17
		c0.03,0.04,0.07,0.08,0.12,0.1C101.41,24.08,101.47,24.09,101.54,24.09z"/>
	<path class="st0" d="M103.32,25.45v-2.36h0.73l0.06,0.36h0.03c0.06-0.09,0.14-0.17,0.22-0.23c0.08-0.06,0.18-0.11,0.28-0.14
		c0.1-0.03,0.21-0.04,0.31-0.04c0.19,0,0.34,0.04,0.46,0.11c0.12,0.07,0.21,0.17,0.27,0.3s0.09,0.29,0.09,0.48v1.53h-0.89v-1.42
		c0-0.05-0.01-0.1-0.02-0.14c-0.01-0.04-0.03-0.08-0.06-0.11c-0.02-0.03-0.05-0.05-0.09-0.07c-0.04-0.02-0.08-0.02-0.13-0.02
		c-0.07,0-0.14,0.02-0.19,0.05c-0.06,0.03-0.1,0.08-0.13,0.13c-0.03,0.06-0.05,0.12-0.05,0.19v1.39H103.32z"/>
	<path class="st0" d="M107,25.5c-0.12,0-0.23-0.01-0.33-0.03c-0.1-0.02-0.19-0.06-0.26-0.11c-0.08-0.05-0.13-0.12-0.17-0.21
		s-0.06-0.19-0.06-0.31c0-0.18,0.04-0.32,0.11-0.43c0.07-0.11,0.18-0.2,0.32-0.25c0.14-0.06,0.31-0.1,0.51-0.12
		c0.2-0.02,0.43-0.03,0.69-0.03v-0.12c0-0.07-0.02-0.12-0.05-0.16c-0.03-0.04-0.07-0.07-0.12-0.09c-0.05-0.02-0.11-0.03-0.17-0.03
		c-0.05,0-0.1,0.01-0.16,0.02s-0.1,0.03-0.13,0.06c-0.03,0.03-0.05,0.07-0.05,0.12v0.02h-0.88c0-0.01,0-0.02,0-0.03
		c0-0.01,0-0.02,0-0.03c0-0.15,0.05-0.27,0.14-0.38s0.23-0.19,0.42-0.25s0.41-0.09,0.68-0.09c0.22,0,0.42,0.02,0.6,0.07
		c0.18,0.05,0.33,0.13,0.45,0.24c0.11,0.11,0.17,0.26,0.17,0.46v0.92c0,0.05,0.01,0.09,0.04,0.12c0.02,0.03,0.06,0.05,0.11,0.05H109
		v0.51c-0.04,0.02-0.09,0.04-0.18,0.06s-0.18,0.03-0.29,0.03c-0.12,0-0.22-0.01-0.31-0.04c-0.09-0.02-0.16-0.06-0.22-0.1
		c-0.06-0.04-0.09-0.1-0.11-0.16h-0.03c-0.06,0.06-0.13,0.11-0.22,0.15c-0.08,0.04-0.18,0.08-0.28,0.11
		C107.25,25.49,107.14,25.5,107,25.5z M107.36,24.95c0.06,0,0.11-0.01,0.16-0.02c0.05-0.02,0.1-0.04,0.14-0.07
		c0.04-0.03,0.07-0.06,0.1-0.1c0.02-0.04,0.04-0.08,0.04-0.13v-0.2c-0.18,0-0.32,0.01-0.43,0.04c-0.11,0.03-0.19,0.06-0.24,0.11
		c-0.05,0.04-0.08,0.1-0.08,0.16s0.01,0.11,0.04,0.14c0.03,0.03,0.07,0.06,0.11,0.07C107.26,24.94,107.31,24.95,107.36,24.95z"/>
	<path class="st0" d="M109.66,26.39c-0.11,0-0.21-0.03-0.3-0.08s-0.16-0.12-0.22-0.21s-0.08-0.19-0.08-0.29
		c0-0.12,0.04-0.23,0.11-0.32c0.08-0.09,0.16-0.16,0.26-0.21c-0.07-0.05-0.13-0.11-0.17-0.18c-0.04-0.07-0.06-0.15-0.06-0.23
		c0-0.12,0.04-0.23,0.13-0.32s0.2-0.16,0.32-0.19c-0.11-0.07-0.2-0.15-0.27-0.25s-0.11-0.2-0.11-0.32c0-0.2,0.05-0.35,0.17-0.46
		c0.11-0.11,0.26-0.19,0.44-0.23c0.19-0.05,0.39-0.07,0.61-0.07c0.09,0,0.17,0,0.23,0.01c0.06,0,0.12,0.01,0.16,0.02
		c0.13-0.08,0.22-0.16,0.27-0.24c0.05-0.08,0.08-0.14,0.08-0.18h0.73c0,0.13-0.02,0.23-0.07,0.32c-0.04,0.08-0.11,0.15-0.19,0.2
		s-0.18,0.09-0.29,0.12c0.09,0.07,0.15,0.14,0.2,0.23c0.05,0.09,0.07,0.18,0.07,0.28c0,0.18-0.05,0.32-0.14,0.43
		c-0.09,0.11-0.21,0.19-0.36,0.25s-0.31,0.08-0.49,0.08h-0.34c-0.1,0-0.17,0.01-0.22,0.04c-0.04,0.02-0.06,0.05-0.06,0.09
		s0.02,0.07,0.06,0.1c0.04,0.03,0.11,0.04,0.23,0.04h0.81c0.27,0,0.48,0.07,0.6,0.21s0.19,0.32,0.19,0.54
		c0,0.17-0.05,0.31-0.14,0.43c-0.09,0.12-0.21,0.21-0.36,0.28c-0.15,0.07-0.31,0.1-0.49,0.1H109.66z M110.14,25.89h0.7
		c0.04,0,0.08-0.01,0.12-0.03c0.04-0.02,0.06-0.04,0.09-0.08c0.02-0.03,0.03-0.07,0.03-0.12c0-0.07-0.02-0.12-0.07-0.16
		c-0.05-0.04-0.1-0.06-0.17-0.06h-0.7c-0.07,0-0.12,0.02-0.17,0.06s-0.07,0.09-0.07,0.16s0.02,0.12,0.07,0.17
		S110.08,25.89,110.14,25.89z M110.49,24.09c0.1,0,0.19-0.02,0.25-0.07c0.06-0.05,0.09-0.12,0.09-0.22c0-0.1-0.03-0.18-0.09-0.22
		c-0.06-0.05-0.15-0.07-0.25-0.07c-0.09,0-0.17,0.02-0.24,0.07c-0.07,0.05-0.1,0.12-0.1,0.22c0,0.07,0.01,0.12,0.04,0.17
		c0.03,0.04,0.07,0.08,0.12,0.1C110.36,24.08,110.42,24.09,110.49,24.09z"/>
	<path class="st0" d="M113.54,25.5c-0.28,0-0.53-0.04-0.74-0.13c-0.21-0.09-0.37-0.22-0.48-0.41c-0.11-0.18-0.17-0.41-0.17-0.7
		c0-0.28,0.05-0.51,0.17-0.69s0.26-0.32,0.46-0.41s0.43-0.14,0.7-0.14c0.28,0,0.52,0.04,0.72,0.13c0.2,0.09,0.35,0.22,0.45,0.41
		c0.1,0.18,0.16,0.41,0.16,0.7v0.15h-1.77c0,0.11,0.02,0.2,0.05,0.28c0.03,0.08,0.08,0.14,0.15,0.18c0.07,0.04,0.16,0.06,0.28,0.06
		c0.08,0,0.15-0.01,0.2-0.03c0.05-0.02,0.1-0.04,0.13-0.07s0.06-0.07,0.07-0.11s0.02-0.09,0.02-0.13h0.86
		c0,0.14-0.03,0.27-0.08,0.38s-0.13,0.21-0.24,0.29c-0.11,0.08-0.24,0.14-0.4,0.18S113.75,25.5,113.54,25.5z M113.05,24h0.87
		c0-0.06-0.01-0.12-0.03-0.17c-0.02-0.05-0.04-0.09-0.08-0.13c-0.04-0.03-0.08-0.06-0.13-0.08c-0.05-0.02-0.1-0.03-0.17-0.03
		c-0.1,0-0.18,0.02-0.25,0.05s-0.12,0.08-0.15,0.14C113.09,23.84,113.06,23.92,113.05,24z"/>
</g>
<path d="M10.05,12.01c0,0.51,0.05,0.96,0.15,1.37H3.59c-0.14-0.72-0.21-1.5-0.21-2.34c0-0.88,0.07-1.71,0.23-2.46h6.62
	c-0.12,0.45-0.18,0.96-0.18,1.52V12.01z"/>
<path d="M16.5,14.45c-0.27,0.45-0.66,0.79-1.16,1c-0.5,0.22-1.13,0.32-1.86,0.32c-0.81,0-1.46-0.15-1.97-0.45
	c-0.5-0.3-0.87-0.73-1.1-1.29c-0.09-0.2-0.16-0.42-0.21-0.65c-0.1-0.41-0.15-0.86-0.15-1.37v-1.75C7.72,10.89,5.9,10.9,3.39,10.9
	c0,0.05-0.01,0.09-0.01,0.14c0,0.84,0.07,1.62,0.21,2.34c0.19,1.06,0.54,2,1.03,2.81c0.83,1.38,1.98,2.41,3.47,3.09
	s3.24,1.02,5.25,1.02c1.34,0,2.61-0.14,3.79-0.44c1.19-0.29,2.23-0.73,3.12-1.34c0.9-0.6,1.6-1.39,2.1-2.36
	c0.5-0.98,0.76-2.13,0.76-3.47H16.9C16.9,13.4,16.76,13.99,16.5,14.45z"/>
</svg>
