<?xml version="1.0" encoding="utf-8"?>
<!-- Generator: Adobe Illustrator 27.3.1, SVG Export Plug-In . SVG Version: 6.00 Build 0)  -->
<svg version="1.1" xmlns="http://www.w3.org/2000/svg" xmlns:xlink="http://www.w3.org/1999/xlink" x="0px" y="0px"
	 viewBox="0 0 792 792" style="enable-background:new 0 0 792 792;" xml:space="preserve">
<style type="text/css">
	.st0{display:none;}
	.st1{display:inline;}
	.st2{fill:#1C1927;}
	.st3{font-family:'Arvo-Bold';}
	.st4{font-size:83.9288px;}
	.st5{letter-spacing:-1.11;}
	.st6{display:inline;opacity:0.12;fill:url(#SVGID_1_);}
	.st7{display:inline;fill:url(#SVGID_00000146478243256753502610000017909705732307758501_);}
	.st8{display:inline;fill:url(#SVGID_00000132790002252675979380000004728916564696735663_);}
	.st9{display:inline;opacity:0.12;fill:#FFFFFF;}
	.st10{display:inline;fill:#1B1826;}
	.st11{font-size:38.6213px;}
	.st12{letter-spacing:15;}
	.st13{font-size:21.1766px;}
	.st14{font-family:'ArchivoBlack-Regular';}
	.st15{font-size:31.9419px;}
	.st16{fill:#FF1D25;}
	.st17{display:inline;fill:#ED2B2F;}
	.st18{font-size:33.7733px;}
	.st19{font-family:'Archivo-Black';}
	.st20{font-size:205.5012px;}
	.st21{letter-spacing:-12;}
	.st22{letter-spacing:-5;}
	.st23{display:inline;fill:#606060;}
	.st24{font-size:32.1415px;}
	.st25{fill:none;}
</style>
<g id="Layer_2" class="st0">
	<g class="st1">
		<path class="st2" d="M565.33,257.2c-10.32-24.27-25.11-45.86-44.34-64.74c-18.71-18.53-39.95-32.74-63.68-42.63
			C433.57,139.94,408.9,135,383.3,135c-16.24,0-31.69,1.65-46.42,4.86c15.95,1.61,31.28,5.34,45.95,11.34
			c20.07,8.22,37.7,20.6,52.84,37.24h36.16v62.2h-64.74c-9.63-18.09-21.85-31.33-36.66-39.78c-14.8-8.43-31.98-12.66-51.49-12.66
			c-14.93,0-28.92,3.26-42,9.77c-13.09,6.49-24.51,15.79-34.27,27.83c-9.76,12.06-17.44,26.7-23.06,43.91
			c-5.62,17.28-8.44,36.47-8.44,57.69c0,20.98,2.82,39.89,8.44,56.76c5.63,16.87,13.37,31.28,23.25,43.2
			c9.86,11.92,21.29,21.08,34.25,27.49c12.97,6.38,26.91,9.6,41.84,9.6c22.03,0,41.22-5.63,57.51-16.86
			c16.29-11.17,29.27-27.65,38.91-49.31l53.03,27.43c-6.88,15.45-15.39,29.29-25.48,41.59c-10.12,12.28-21.53,22.77-34.26,31.46
			c-12.75,8.69-26.75,15.36-42.01,20.08c-5.96,1.82-12.1,3.19-18.31,4.31c11.12,1.79,22.59,2.73,34.45,2.73
			c26.83,0,52.56-5.26,77.17-15.76c24.64-10.49,46.3-25.55,65.02-45.14c18.01-18.89,31.81-40.51,41.44-64.87
			c9.62-24.36,14.44-50.05,14.44-77.06C580.84,306.76,575.68,281.47,565.33,257.2z"/>
		<g>
			<text transform="matrix(0.9 0 0 1 143.8428 636.0186)" class="st2 st3 st4 st5">[cozuna.com]</text>
		</g>
	</g>
</g>
<g id="Layer_3" class="st0">
	<linearGradient id="SVGID_1_" gradientUnits="userSpaceOnUse" x1="67.9894" y1="346.2392" x2="692.2391" y2="346.2392">
		<stop  offset="0" style="stop-color:#1B75BB;stop-opacity:0"/>
		<stop  offset="1" style="stop-color:#F1F1F2"/>
	</linearGradient>
	<path class="st6" d="M422.72,398.56l1.27-1.39L282.53,268.32c-20.08-23.11-49-36.34-79.52-36.34
		c-58.1,0-105.36,47.27-105.36,105.36c0,58.1,47.27,105.36,105.36,105.36c34.19,0,65.92-16.72,85.5-43.89l22.01,20.05
		c-25.5,33.72-64.82,53.49-107.51,53.49c-74.45,0-135.02-60.57-135.02-135.02s60.57-135.02,135.02-135.02
		c38.08,0,74.62,16.29,100.24,44.69l0.51,0.56l115.87,105.9l0.06-0.58l56.34,51.49c0.63,0.77,1.28,1.53,1.93,2.28l0.57,0.66
		l16.13,14.74l0.71,0.52c0.81,0.59,1.62,1.16,2.44,1.72l12.24,11.2l2.53-2.75c13.92,6.54,29.13,9.96,44.63,9.96
		c58.1,0,105.36-47.27,105.36-105.36c0-58.1-47.27-105.36-105.36-105.36c-33.97,0-65.59,16.56-85.2,43.48l-21.98-20.09
		c25.52-33.44,64.71-53.05,107.19-53.05c74.45,0,135.02,60.57,135.02,135.02s-60.57,135.02-135.02,135.02
		c-28.91,0-56.52-9.07-79.83-26.23l-25.01-18.4v59.24l-29.66,3.18V398.56z"/>
	
		<linearGradient id="SVGID_00000004541459127991852260000010902384265697267098_" gradientUnits="userSpaceOnUse" x1="52.2887" y1="347.1251" x2="707.9396" y2="347.1251">
		<stop  offset="0" style="stop-color:#ED1C24"/>
		<stop  offset="1" style="stop-color:#C4161C"/>
	</linearGradient>
	<path style="display:inline;fill:url(#SVGID_00000004541459127991852260000010902384265697267098_);" d="M557.22,186.62
		c-53.89,0-101.24,28.45-127.88,71.1l46.35,42.37c14.17-30.89,45.37-52.41,81.53-52.41c49.44,0,89.66,40.22,89.66,89.66
		c0,49.44-40.22,89.66-89.66,89.66c-17.61,0-34.02-5.13-47.89-13.93l-0.24,0.26l-1.53-1.4c-1-0.67-1.99-1.35-2.96-2.06l-14.83-13.56
		c-0.79-0.9-1.55-1.82-2.31-2.75l-79.99-73.11c-0.02,0.19-0.05,0.38-0.08,0.57l-92.49-84.54c-27.61-30.6-67.54-49.87-111.9-49.87
		c-83.11,0-150.72,67.61-150.72,150.72s67.61,150.72,150.72,150.72c54.1,0,101.6-28.68,128.18-71.6l-46.45-42.31
		c-14.08,31.13-45.4,52.86-81.73,52.86c-49.44,0-89.66-40.22-89.66-89.66c0-49.44,40.22-89.66,89.66-89.66
		c27.31,0,51.78,12.28,68.24,31.6L401.8,398.19l-0.22,0.24l5.45,4.98v104.22l61.06-6.54v-42.3c24.98,18.39,55.81,29.28,89.14,29.28
		c83.11,0,150.72-67.61,150.72-150.72S640.33,186.62,557.22,186.62z"/>
	
		<linearGradient id="SVGID_00000159435455412682727810000002213040224896319882_" gradientUnits="userSpaceOnUse" x1="32.6631" y1="348.2324" x2="727.5646" y2="348.2324">
		<stop  offset="0" style="stop-color:#ED1C24"/>
		<stop  offset="1" style="stop-color:#C4161C"/>
	</linearGradient>
	<path style="display:inline;fill:url(#SVGID_00000159435455412682727810000002213040224896319882_);" d="M387.4,412.06
		l-13.54-12.38l0.2-0.22L257.12,292.95l-0.8-0.94c-13.38-15.7-32.81-24.7-53.31-24.7c-38.62,0-70.04,31.42-70.04,70.04
		s31.42,70.04,70.04,70.04c27.44,0,52.5-16.22,63.85-41.32l11.13-24.61l78.47,71.47l-8.58,13.86
		c-31.37,50.66-85.52,80.9-144.87,80.9c-93.93,0-170.34-76.42-170.34-170.35S109.08,167,203.01,167
		c47.74,0,93.54,20.26,125.82,55.63l63.32,57.88l0.06-0.59l109.58,100.16l0.92,1.14c0.39,0.47,0.77,0.95,1.16,1.41l13.1,11.98
		c0.5,0.35,1.75,1.2,1.75,1.2l1.12,0.71c11.2,7.11,24.12,10.87,37.37,10.87c38.62,0,70.04-31.42,70.04-70.04
		s-31.42-70.04-70.04-70.04c-27.27,0-52.27,16.08-63.69,40.97l-11.22,24.45l-78.28-71.54l8.66-13.86
		c31.42-50.3,85.45-80.33,144.52-80.33c93.93,0,170.35,76.42,170.35,170.35s-76.42,170.35-170.35,170.35
		c-24.27,0-47.81-5.06-69.51-14.82v25.85L387.4,529.47V412.06z"/>
	<path class="st9" d="M403.1,404.68L268.47,282.05l-0.75-0.87c-16.34-18.8-39.92-29.58-64.71-29.58
		c-47.28,0-85.74,38.46-85.74,85.74s38.46,85.74,85.74,85.74c27.44,0,53.45-13.36,69.58-35.74l12.87-17.85l51.52,46.93l-10.8,14.28
		c-29.46,38.94-74.35,61.28-123.17,61.28c-85.27,0-154.64-69.37-154.64-154.64c0-85.27,69.37-154.64,154.64-154.64
		c43.57,0,85.36,18.6,114.69,51.03l86.62,79.17l0.06-0.58l85.91,78.52l0.88,1.07c0.46,0.56,0.93,1.12,1.41,1.67l14.5,13.25
		c0.6,0.43,1.21,0.86,1.84,1.29l1.13,0.78l2.19,2.01l8.69,4.08c11.43,5.37,23.64,8.1,36.29,8.1c47.28,0,85.74-38.46,85.74-85.74
		s-38.46-85.74-85.74-85.74c-27.26,0-53.18,13.24-69.34,35.42l-12.92,17.72l-51.42-47l10.89-14.28
		c29.47-38.62,74.22-60.77,122.79-60.77c85.27,0,154.64,69.37,154.64,154.64c0,85.27-69.37,154.64-154.64,154.64
		c-30.58,0-59.88-8.85-85.22-25.67v38.29l-68.91,7.38V404.68z"/>
	<text transform="matrix(1 0 0 1 92.0503 590.2832)" class="st10 st3 st11 st12">ozuna printing</text>
	<text transform="matrix(1 0 0 1 213.0171 647.7061)" class="st10 st3 st13">www.ozunaprinting.com</text>
</g>
<g id="Layer_4">
	<g>
		<text transform="matrix(1 0 0 1 82.3833 598.4331)" class="st14 st15">web design | graphic design | printing</text>
		<g>
			<path d="M168.63,353.11c0-51.01,22.11-76.52,66.36-76.52c44.23,0,66.36,20.32,66.36,60.94h130.69
				c0-51.46-18.18-89.72-54.51-114.78c-36.34-25.05-83.86-37.58-142.53-37.58c-62.75,0-111.96,15.81-147.61,47.4
				c-35.5,31.45-53.31,78.31-53.48,139.27h134.73V353.11z"/>
			<path class="st16" d="M704.29,232.78c-35.89-31.83-85.21-47.74-147.95-47.74c-62.75,0-111.96,15.81-147.62,47.4
				c-35.67,31.6-53.49,78.1-53.49,139.49c0,61.4,17.83,107.89,53.49,139.49c35.66,31.61,84.86,47.4,147.62,47.4
				c62.74,0,112.06-15.91,147.95-47.74c35.89-31.83,53.83-78.21,53.83-139.15C758.12,310.98,740.17,264.6,704.29,232.78z
				 M640.1,389.06c-4.77,23.21-15.29,40.4-33.38,52.84l21.24,34.51l-91.76-18.84c-47.61-9.78-78.28-56.3-68.5-103.91
				c9.78-47.61,56.3-78.28,103.91-68.5C619.2,294.93,649.87,341.45,640.1,389.06z"/>
			<path d="M237.7,467.55c-46.04,0-69.07-25.28-69.07-75.84v-21.02H33.9c0,0.29-0.02,1.1-0.02,1.39
				c0,61.4,17.83,107.89,53.49,139.49c35.66,31.61,84.86,47.4,147.61,47.4c58.68,0,106.19-12.63,142.53-37.92
				c36.33-25.28,54.51-63.87,54.51-115.79H306.76C306.76,446.79,283.74,467.55,237.7,467.55z"/>
		</g>
	</g>
</g>
<g id="Layer_5" class="st0">
	<path class="st17" d="M-140.65,179.65c-1.48,7.23-4.76,12.59-10.4,16.46l6.62,10.75l-28.59-5.87
		c-14.84-3.05-24.39-17.54-21.35-32.38c3.05-14.84,17.54-24.39,32.38-21.35C-147.16,150.32-137.6,164.82-140.65,179.65z"/>
	<g class="st1">
		<path d="M75.14,254.64c0-15.89,6.89-23.84,20.68-23.84c13.78,0,20.68,6.33,20.68,18.99h40.72c0-16.04-5.66-27.96-16.99-35.77
			c-11.32-7.81-26.13-11.71-44.42-11.71c-19.55,0-34.89,4.93-46,14.77c-11.06,9.8-16.61,24.4-16.66,43.4h41.98V254.64z"/>
		<path class="st16" d="M242.05,217.14c-11.18-9.92-26.55-14.88-46.1-14.88c-19.55,0-34.89,4.93-46,14.77
			c-11.11,9.85-16.67,24.34-16.67,43.47c0,19.13,5.55,33.62,16.67,43.47c11.11,9.85,26.44,14.77,46,14.77
			c19.55,0,34.92-4.96,46.1-14.88c11.18-9.92,16.77-24.37,16.77-43.36C258.83,241.51,253.24,227.06,242.05,217.14z M222.05,265.84
			c-1.48,7.23-4.76,12.59-10.4,16.46l6.62,10.75l-28.59-5.87c-14.84-3.05-24.39-17.54-21.35-32.38
			c3.05-14.84,17.54-24.39,32.38-21.35C215.54,236.51,225.1,251.01,222.05,265.84z"/>
		<text transform="matrix(1 0 0 1 64.4017 355.3821)" class="st14 st18">web design | graphic design | printing</text>
		<path class="st16" d="M321.58,287.77h49.16v28.48H262.08v-13.71l46.84-69.21h-44.31v-28.48h104.24v13.08L321.58,287.77z"/>
		<path class="st16" d="M461.71,316.25l-2.74-16.88c-4.36,6.05-10.1,10.8-17.2,14.24c-7.1,3.45-14.59,5.17-22.47,5.17
			c-12.94,0-22.65-3.59-29.12-10.76c-6.47-7.17-9.7-17.51-9.7-31.02v-72.16h41.99v67.1c0,4.78,1.23,8.62,3.69,11.5
			c2.46,2.88,5.94,4.33,10.45,4.33c5.2,0,9.42-1.69,12.66-5.06c3.23-3.38,4.85-7.52,4.85-12.45v-65.41h41.99v111.41H461.71z"/>
		<path class="st16" d="M609.51,213.07c6.47,7.17,9.71,17.51,9.71,31.02v72.16h-41.99v-67.1c0-4.78-1.23-8.62-3.69-11.5
			c-2.46-2.88-5.94-4.33-10.44-4.33c-5.21,0-9.43,1.69-12.66,5.06c-3.24,3.38-4.85,7.53-4.85,12.45v65.41h-41.99V204.85h34.39
			l2.74,16.88c4.36-5.91,10.09-10.62,17.2-14.14c7.1-3.52,14.59-5.28,22.47-5.28C593.33,202.31,603.04,205.9,609.51,213.07z"/>
		<path class="st16" d="M728.47,210.86c10.69,5.7,16.04,14.95,16.04,27.75v43.47c0,2.39,0.56,4.36,1.69,5.91
			c1.12,1.55,2.81,2.32,5.06,2.32h7.6v24.27c-0.42,0.28-1.51,0.74-3.27,1.37c-1.76,0.63-4.26,1.26-7.49,1.9
			c-3.24,0.63-6.96,0.95-11.18,0.95c-8.16,0-14.88-1.23-20.15-3.69c-5.27-2.46-8.9-5.87-10.87-10.23
			c-5.35,4.22-11.32,7.6-17.93,10.13c-6.61,2.53-14.35,3.8-23.21,3.8c-26.16,0-39.25-10.41-39.25-31.23
			c0-10.83,2.92-19.1,8.76-24.79c5.83-5.7,14.24-9.6,25.21-11.71c10.97-2.11,25.32-3.17,43.04-3.17v-5.49
			c0-4.36-1.51-7.66-4.54-9.92c-3.03-2.25-6.93-3.38-11.71-3.38c-4.36,0-8.12,0.77-11.29,2.32c-3.17,1.55-4.75,4.01-4.75,7.38v0.84
			h-41.36c-0.14-0.7-0.21-1.69-0.21-2.96c0-10.55,5.03-18.92,15.09-25.11c10.06-6.19,24.44-9.28,43.15-9.28
			C703.92,202.31,717.78,205.16,728.47,210.86z M676.03,271.63c-5.7,2.61-8.55,6.09-8.55,10.45c0,7.04,4.78,10.55,14.35,10.55
			c5.49,0,10.3-1.48,14.45-4.43c4.15-2.95,6.23-6.61,6.23-10.97v-9.49C690.56,267.72,681.73,269.03,676.03,271.63z"/>
		<path d="M96.66,290.3c-14.35,0-21.52-7.88-21.52-23.63v-6.55H33.15c0,0.09,0,0.34,0,0.43c0,19.13,5.55,33.62,16.67,43.47
			c11.11,9.85,26.44,14.77,46,14.77c18.28,0,33.09-3.94,44.42-11.82c11.32-7.88,16.99-19.9,16.99-36.08h-39.04
			C118.18,283.83,111.01,290.3,96.66,290.3z"/>
	</g>
	<text transform="matrix(1 0 0 1 147.4096 30.3149)" class="st1 st19 st20 st21">ozuna</text>
	<text transform="matrix(1 0 0 1 21.5924 30.3149)" class="st1 st19 st20 st22">c</text>
	<path class="st23" d="M-148.12,178.86c-1.07,5.22-3.44,9.09-7.51,11.88l4.78,7.76l-20.64-4.24c-10.71-2.2-17.61-12.66-15.41-23.37
		c2.2-10.71,12.66-17.61,23.37-15.41C-152.82,157.68-145.92,168.15-148.12,178.86z"/>
	<path class="st17" d="M-85.08,378.62c-1.73,5.04-4.58,8.57-8.97,10.82l3.74,8.31l-19.93-6.85c-10.34-3.55-15.84-14.82-12.28-25.16
		c3.55-10.34,14.82-15.84,25.16-12.28C-87.02,357.02-81.52,368.28-85.08,378.62z"/>
	<g class="st1">
		<text transform="matrix(1 0 0 1 80.4231 602.9275)" class="st14 st24">web design | graphic design | printing</text>
		<path d="M129.69,517.29c0,4.39-0.82,7.98-2.47,10.79c-1.64,2.81-4.01,4.86-7.09,6.17c-3.08,1.3-6.88,1.95-11.41,1.95
			c-4.93,0-8.94-0.92-12.02-2.77s-5.34-4.49-6.78-7.91c-1.44-3.42-2.16-7.53-2.16-12.33v-11.71c0-4.79,0.68-8.94,2.05-12.43
			c1.37-3.49,3.53-6.17,6.47-8.01c2.94-1.85,6.81-2.77,11.61-2.77c4.24,0,7.88,0.65,10.89,1.95c3.01,1.3,5.31,3.32,6.88,6.06
			c1.57,2.74,2.36,6.24,2.36,10.48h39.66c0-8.22-1.54-15.28-4.62-21.17c-3.08-5.89-7.37-10.69-12.84-14.38
			c-5.48-3.7-11.85-6.44-19.11-8.22c-7.26-1.78-15-2.67-23.22-2.67c-12.33,0-23.05,2.09-32.16,6.27
			c-9.11,4.18-16.2,10.48-21.27,18.91c-5.07,8.42-7.6,19.01-7.6,31.75c0,12.61,2.53,23.12,7.6,31.54
			c5.07,8.43,12.16,14.73,21.27,18.91c9.11,4.18,19.83,6.27,32.16,6.27c8.22,0,15.96-0.89,23.22-2.67
			c7.26-1.78,13.63-4.52,19.11-8.22c2.85-1.92,5.37-4.16,7.57-6.69l0,0c0,0,0,0,0,0c1.01-1.17,1.96-2.4,2.84-3.69
			c0.04-0.06,0.08-0.13,0.13-0.2c0.39-0.58,0.77-1.18,1.13-1.79c0.41-0.69,0.8-1.39,1.18-2.11c3.08-5.96,4.62-13.05,4.62-21.27
			h-22.65H129.69z"/>
		<path class="st16" d="M259.12,475.47c-5.07-8.35-12.2-14.62-21.37-18.8c-9.18-4.18-19.93-6.27-32.26-6.27s-23.05,2.09-32.16,6.27
			c-9.11,4.18-16.2,10.45-21.27,18.8c-5.07,8.36-7.6,18.91-7.6,31.65c0,12.61,2.53,23.12,7.6,31.54
			c5.07,8.43,12.16,14.73,21.27,18.91c9.11,4.18,19.83,6.27,32.16,6.27s23.08-2.09,32.26-6.27c9.18-4.18,16.3-10.48,21.37-18.91
			c5.07-8.42,7.6-18.94,7.6-31.54C266.72,494.38,264.18,483.83,259.12,475.47z M232.45,509.98c-1.48,7.23-4.76,12.59-10.4,16.46
			l6.62,10.75l-28.59-5.87c-14.84-3.05-24.39-17.54-21.35-32.38c3.05-14.84,17.54-24.39,32.38-21.35
			C225.93,480.65,235.49,495.15,232.45,509.98z"/>
		<path class="st16" d="M261.79,561.37v-13.36l45.62-67.4h-43.16v-27.74h101.52v12.74l-46.03,68.02h47.88v27.74H261.79z"/>
		<path class="st16" d="M409.34,563.84c-12.88,0-22.4-3.56-28.56-10.69c-6.17-7.12-9.25-17.12-9.25-30v-70.28h40.9v65.35
			c0,2.19,0.31,4.25,0.92,6.17c0.62,1.92,1.47,3.56,2.57,4.93c1.09,1.37,2.53,2.43,4.32,3.18c1.78,0.75,3.77,1.13,5.96,1.13
			c3.42,0,6.4-0.79,8.94-2.36c2.53-1.57,4.52-3.66,5.96-6.27c1.44-2.6,2.16-5.41,2.16-8.43v-63.71h40.89v108.5h-33.5l-2.05-16.44
			h-1.44c-2.6,3.98-5.93,7.4-9.97,10.28c-4.04,2.88-8.46,5.04-13.25,6.47C419.13,563.12,414.27,563.84,409.34,563.84z"/>
		<path class="st16" d="M496.67,561.37v-108.5h33.5l2.67,16.44h1.44c2.88-4.25,6.23-7.77,10.07-10.58c3.83-2.81,8.08-4.9,12.74-6.27
			c4.66-1.37,9.45-2.06,14.38-2.06c8.63,0,15.72,1.61,21.27,4.83c5.55,3.22,9.69,7.84,12.43,13.87c2.74,6.03,4.11,13.36,4.11,21.99
			v70.28h-40.9v-65.35c0-2.33-0.31-4.42-0.92-6.27c-0.62-1.85-1.47-3.46-2.57-4.83c-1.1-1.37-2.5-2.43-4.21-3.19
			c-1.71-0.75-3.73-1.13-6.06-1.13c-3.43,0-6.41,0.79-8.94,2.36c-2.54,1.58-4.52,3.63-5.96,6.17c-1.44,2.54-2.16,5.38-2.16,8.53
			v63.71H496.67z"/>
		<path class="st16" d="M653.47,563.84c-5.62,0-10.76-0.51-15.41-1.54c-4.66-1.03-8.7-2.74-12.12-5.14
			c-3.43-2.4-6.06-5.55-7.91-9.45c-1.85-3.9-2.77-8.66-2.77-14.28c0-8.08,1.68-14.66,5.03-19.73c3.36-5.07,8.25-8.97,14.69-11.71
			c6.44-2.74,14.28-4.62,23.53-5.65c9.25-1.03,19.83-1.54,31.75-1.54v-5.34c0-3.01-0.72-5.45-2.16-7.3s-3.32-3.25-5.65-4.21
			c-2.33-0.96-5-1.44-8.01-1.44c-2.33,0-4.73,0.28-7.19,0.82c-2.47,0.55-4.49,1.51-6.06,2.88c-1.58,1.37-2.36,3.29-2.36,5.75v0.82
			h-40.28c-0.14-0.55-0.21-1.03-0.21-1.44s0-0.89,0-1.44c0-6.71,2.16-12.57,6.47-17.57c4.32-5,10.69-8.9,19.11-11.71
			c8.43-2.81,18.8-4.21,31.13-4.21c10,0,19.25,1.1,27.74,3.29c8.49,2.19,15.34,5.86,20.55,10.99c5.21,5.14,7.81,12.16,7.81,21.06
			v42.33c0,2.19,0.55,4.08,1.64,5.65c1.09,1.58,2.74,2.36,4.93,2.36h7.4v23.63c-1.64,0.96-4.35,1.88-8.12,2.77
			c-3.77,0.89-8.19,1.34-13.25,1.34c-5.48,0-10.28-0.55-14.39-1.64c-4.11-1.09-7.43-2.67-9.97-4.73c-2.54-2.06-4.28-4.45-5.24-7.19
			h-1.44c-2.88,2.6-6.2,4.93-9.97,6.99c-3.77,2.06-8.05,3.67-12.84,4.83C665.11,563.25,659.63,563.84,653.47,563.84z M670.12,538.36
			c2.6,0,5.1-0.38,7.5-1.13c2.4-0.75,4.55-1.78,6.47-3.08c1.92-1.3,3.42-2.88,4.52-4.73c1.1-1.85,1.64-3.87,1.64-6.06v-9.25
			c-8.08,0-14.63,0.62-19.62,1.85c-5,1.23-8.67,2.88-11,4.93c-2.33,2.05-3.49,4.45-3.49,7.19c0,2.74,0.68,4.86,2.05,6.37
			c1.37,1.51,3.12,2.54,5.24,3.08C665.56,538.08,667.78,538.36,670.12,538.36z"/>
		<path class="st25" d="M125.69,486.26c-1.58-2.74-3.87-4.76-6.88-6.06c-3.01-1.3-6.65-1.95-10.89-1.95c-4.8,0-8.67,0.92-11.61,2.77
			c-2.95,1.85-5.11,4.52-6.47,8.01c-1.37,3.49-2.05,7.64-2.05,12.43v11.71c0,4.8,0.72,8.91,2.16,12.33c1.44,3.43,3.7,6.06,6.78,7.91
			s7.09,2.77,12.02,2.77c4.52,0,8.32-0.65,11.41-1.95c3.08-1.3,5.45-3.36,7.09-6.17c1.64-2.81,2.47-6.4,2.47-10.79h15.37
			c-0.4-3.23-0.61-6.61-0.61-10.17c0-3.64,0.21-7.1,0.63-10.38h-17.03C128.05,492.5,127.26,489,125.69,486.26z"/>
		<path d="M145.07,496.74h22.64c0-8.22-1.54-15.28-4.62-21.17c-1.48-2.83-3.25-5.4-5.28-7.73c-2.13,2.32-4.07,4.85-5.75,7.63
			C148.43,481.44,146.11,488.54,145.07,496.74z"/>
	</g>
</g>
</svg>
