<?xml version="1.0" encoding="UTF-8"?>
<svg xmlns="http://www.w3.org/2000/svg" xmlns:xlink="http://www.w3.org/1999/xlink" xmlns:i="http://ns.adobe.com/AdobeIllustrator/10.0/" width="3.4in" height=".8in" version="1.1" viewBox="0 0 246.6 58.4">
  <defs>
    <style>
      .cls-1 {
        fill: none;
      }

      .cls-2 {
        clip-path: url(#clippath);
      }

      .cls-3 {
        fill: #ff1d25;
      }
    </style>
    <clipPath id="clippath">
      <path class="cls-1" d="M1.8.8v42.5h44.9V.8H1.8ZM44.7,19.5h-7.8c.4-4.9,2-8.7,5-11.6.8.9,1.5,1.9,2.1,2.9,1.1,2.2,1.7,4.7,1.7,7.6l-1,1Z"></path>
    </clipPath>
  </defs>
  <g>
    <g id="Layer_1">
      <g>
        <g>
          <path d="M12.8,53.9c-.2,0-.4,0-.6-.2-.2-.1-.3-.2-.5-.4s-.2-.4-.2-.6,0-.5.2-.7c.2-.2.3-.3.5-.4-.1-.1-.3-.2-.4-.4s-.1-.3-.1-.5c0-.2,0-.5.3-.7.2-.2.4-.3.7-.4-.2-.1-.4-.3-.6-.5-.2-.2-.2-.4-.2-.7,0-.4.1-.7.3-1,.2-.2.5-.4.9-.5.4,0,.8-.1,1.3-.1s.3,0,.5,0c.1,0,.2,0,.3,0,.3-.2.5-.3.6-.5.1-.2.2-.3.2-.4h1.5c0,.3,0,.5-.1.7,0,.2-.2.3-.4.4s-.4.2-.6.2c.2.1.3.3.4.5s.2.4.2.6c0,.4,0,.7-.3.9-.2.2-.4.4-.8.5-.3.1-.7.2-1,.2h-.7c-.2,0-.4,0-.5,0s-.1.1-.1.2,0,.1.1.2.2,0,.5,0h1.7c.6,0,1,.1,1.3.4.3.3.4.7.4,1.1s0,.6-.3.9c-.2.3-.4.4-.8.6-.3.1-.7.2-1,.2h-2.7ZM13.8,52.9h1.4c0,0,.2,0,.3,0s.1,0,.2-.2,0-.2,0-.2c0-.1,0-.3-.1-.3,0,0-.2-.1-.3-.1h-1.4c-.1,0-.3,0-.3.1,0,0-.1.2-.1.3s0,.3.1.3c0,0,.2.1.3.1ZM14.5,49.1c.2,0,.4,0,.5-.1.1,0,.2-.3.2-.5s0-.4-.2-.5c-.1,0-.3-.1-.5-.1s-.4,0-.5.1c-.1,0-.2.3-.2.5s0,.3,0,.3.1.2.2.2c.1,0,.2,0,.4,0Z"></path>
          <path d="M18.2,52v-4.9h1.5v.7h.2c0-.2.2-.3.3-.5s.3-.2.4-.3c.2,0,.3,0,.5,0s.2,0,.3,0,.2,0,.2,0v1.5h-.6c-.2,0-.4,0-.5,0-.1,0-.3.1-.3.2,0,.1-.1.2-.2.4s0,.3,0,.5v2.2h-1.8Z"></path>
          <path d="M23.7,52.1c-.3,0-.5,0-.7,0-.2,0-.4-.1-.5-.2s-.3-.2-.4-.4c0-.2-.1-.4-.1-.6,0-.4,0-.7.2-.9.2-.2.4-.4.7-.5.3-.1.6-.2,1.1-.3.4,0,.9,0,1.4,0v-.2c0-.1,0-.2,0-.3,0,0-.2-.1-.3-.2-.1,0-.2,0-.4,0s-.2,0-.3,0-.2,0-.3.1-.1.1-.1.3h0s-1.8,0-1.8,0c0,0,0,0,0,0h0c0-.4,0-.6.3-.9.2-.2.5-.4.9-.5s.8-.2,1.4-.2.9,0,1.3.1c.4,0,.7.3.9.5.2.2.4.5.4,1v1.9c0,0,0,.2,0,.3,0,0,.1.1.2.1h.3v1.1c0,0-.2,0-.4.1s-.4,0-.6,0-.5,0-.6,0-.3-.1-.4-.2c-.1,0-.2-.2-.2-.3h0c-.1.1-.3.2-.5.3-.2,0-.4.2-.6.2-.2,0-.5,0-.7,0ZM24.4,50.9c.1,0,.2,0,.3,0,.1,0,.2,0,.3-.1,0,0,.2-.1.2-.2,0,0,0-.2,0-.3v-.4c-.4,0-.7,0-.9,0-.2,0-.4.1-.5.2-.1,0-.2.2-.2.3s0,.2,0,.3c0,0,.1.1.2.1s.2,0,.3,0Z"></path>
          <path d="M28.4,53.8v-6.7h1.5l.2.7h0c.2-.3.4-.5.6-.6.3-.1.5-.2.9-.2s.8,0,1.1.3c.3.2.5.5.7.9.2.4.2.9.2,1.4s0,1-.2,1.4-.4.7-.7.8c-.3.2-.7.3-1.1.3s-.3,0-.5,0c-.2,0-.3,0-.4-.2-.1,0-.3-.2-.4-.3h0v2.3h-1.8ZM31.1,50.7c.2,0,.3,0,.5-.1s.2-.2.3-.3c0-.1,0-.3,0-.5v-.5c0-.2,0-.4,0-.5,0-.1-.1-.3-.3-.3s-.3-.1-.5-.1-.3,0-.5.1c-.1,0-.2.2-.3.4,0,.2,0,.3,0,.5v.3c0,.1,0,.3,0,.4,0,.1,0,.2.1.3s.1.2.3.2c.1,0,.2,0,.4,0Z"></path>
          <path d="M34.6,52v-6.7h1.8v2.3h0c.1-.1.2-.2.4-.3.2,0,.3-.2.5-.2.2,0,.4,0,.5,0,.4,0,.7,0,1,.2.3.1.4.4.6.6.1.3.2.6.2,1v3.2h-1.8v-3c0-.1,0-.2,0-.3,0,0,0-.2-.1-.2,0,0-.1-.1-.2-.1,0,0-.2,0-.3,0-.2,0-.3,0-.4.1-.1,0-.2.2-.3.3,0,.1,0,.2,0,.4v2.9h-1.8Z"></path>
          <path d="M40.8,46.5v-1.3h1.8v1.3h-1.8ZM40.8,52v-4.9h1.8v4.9h-1.8Z"></path>
          <path d="M46.3,52.1c-.6,0-1,0-1.5-.3-.4-.2-.7-.5-1-.9-.2-.4-.3-.9-.3-1.4s.1-1.1.3-1.4c.2-.4.5-.7,1-.9.4-.2.9-.3,1.5-.3s.7,0,1,.1c.3,0,.6.2.9.4.2.2.4.4.6.6.1.3.2.6.2,1h-1.8c0-.2,0-.3-.1-.5,0-.1-.2-.2-.3-.3s-.3,0-.5,0-.4,0-.5.1c-.1,0-.2.2-.3.4,0,.2,0,.3,0,.6v.5c0,.2,0,.4,0,.6,0,.2.2.3.3.4.1,0,.3.1.5.1s.4,0,.5,0,.2-.2.3-.3.1-.3.1-.5h1.7c0,.4,0,.7-.2,1-.1.3-.3.5-.6.7-.2.2-.5.3-.9.4-.3,0-.7.1-1,.1Z"></path>
          <path d="M51.7,53.9v-8.7h1.2v8.7h-1.2Z"></path>
          <path d="M57.1,52l-1.8-4.9h2l.4,1.5c0,0,0,.2,0,.4,0,.2,0,.3.1.5s0,.4.1.5h0c0-.2,0-.3.1-.5,0-.2,0-.3.1-.5,0-.2,0-.3.1-.5l.4-1.5h1.8l.4,1.5c0,0,0,.2,0,.4s0,.3.1.5,0,.3.1.5h0c0-.1,0-.3.1-.4,0-.2,0-.3.1-.5,0-.2,0-.3.1-.4l.4-1.5h1.8l-1.8,4.9h-1.8l-.5-1.7c0-.1,0-.2-.1-.4s0-.3-.1-.4c0-.1,0-.2,0-.3h0c0,0,0,.2,0,.3,0,.1,0,.2-.1.4s0,.3-.1.4l-.5,1.7h-1.8Z"></path>
          <path d="M67.3,52.1c-.6,0-1.1,0-1.5-.3-.4-.2-.8-.5-1-.8s-.3-.9-.3-1.4.1-1.1.3-1.4c.2-.4.5-.7,1-.8.4-.2.9-.3,1.5-.3s1.1,0,1.5.3c.4.2.7.5.9.8.2.4.3.9.3,1.4v.3h-3.7c0,.2,0,.4,0,.6s.2.3.3.4c.1,0,.3.1.6.1s.3,0,.4,0c.1,0,.2,0,.3-.2,0,0,.1-.1.2-.2s0-.2,0-.3h1.8c0,.3,0,.6-.2.8-.1.2-.3.4-.5.6-.2.2-.5.3-.8.4-.3,0-.7.1-1.2.1ZM66.3,49h1.8c0-.1,0-.2,0-.3,0-.1,0-.2-.2-.3,0,0-.2-.1-.3-.2-.1,0-.2,0-.3,0-.2,0-.4,0-.5.1-.1,0-.2.2-.3.3,0,.1-.1.3-.1.4Z"></path>
          <path d="M74.1,52.1c-.3,0-.6,0-.9-.2-.3-.1-.5-.3-.6-.6h0v.7h-1.6v-6.7h1.8v2.3h0c0-.1.2-.2.4-.3.1,0,.3-.1.4-.2.2,0,.3,0,.5,0,.4,0,.8,0,1.1.3.3.2.5.5.7.8.2.4.2.9.2,1.4s0,1.1-.2,1.4c-.2.4-.4.7-.7.9-.3.2-.7.3-1.1.3ZM73.5,50.7c.2,0,.3,0,.5-.1.1,0,.2-.2.3-.3,0-.1,0-.3,0-.5v-.5c0-.2,0-.4,0-.5,0-.1-.1-.3-.3-.3-.1,0-.3-.1-.5-.1s-.3,0-.4,0c-.1,0-.2.1-.3.2,0,0-.1.2-.1.3,0,.1,0,.3,0,.4v.3c0,.2,0,.4,0,.5s.1.3.3.4.3.1.5.1Z"></path>
          <path d="M80.6,52.1c-.4,0-.8,0-1.1-.3-.3-.2-.5-.5-.7-.9-.2-.4-.2-.9-.2-1.4s0-1,.2-1.4c.2-.4.4-.7.7-.8.3-.2.7-.3,1.1-.3s.3,0,.5,0c.2,0,.3.1.5.2.1,0,.3.2.3.3h0v-2.3h1.8v6.7h-1.5v-.7h-.2c-.2.3-.4.5-.6.6-.3.1-.6.2-.9.2ZM81.1,50.7c.2,0,.3,0,.5-.1.1,0,.2-.2.3-.4s0-.3,0-.5v-.3c0-.1,0-.3,0-.4,0-.1,0-.2-.1-.3,0,0-.2-.2-.3-.2-.1,0-.2,0-.4,0s-.3,0-.5.1c-.1,0-.2.2-.3.3,0,.1,0,.3,0,.5v.5c0,.2,0,.4,0,.5,0,.1.1.3.3.3.1,0,.3.1.5.1Z"></path>
          <path d="M87.5,52.1c-.6,0-1.1,0-1.5-.3-.4-.2-.8-.5-1-.8s-.3-.9-.3-1.4.1-1.1.3-1.4c.2-.4.5-.7,1-.8.4-.2.9-.3,1.5-.3s1.1,0,1.5.3c.4.2.7.5.9.8.2.4.3.9.3,1.4v.3h-3.7c0,.2,0,.4,0,.6s.2.3.3.4c.1,0,.3.1.6.1s.3,0,.4,0c.1,0,.2,0,.3-.2,0,0,.1-.1.2-.2s0-.2,0-.3h1.8c0,.3,0,.6-.2.8-.1.2-.3.4-.5.6-.2.2-.5.3-.8.4-.3,0-.7.1-1.2.1ZM86.5,49h1.8c0-.1,0-.2,0-.3,0-.1,0-.2-.2-.3,0,0-.2-.1-.3-.2-.1,0-.2,0-.3,0-.2,0-.4,0-.5.1-.1,0-.2.2-.3.3,0,.1-.1.3-.1.4Z"></path>
          <path d="M93.4,52.1c-.3,0-.6,0-.9,0s-.6-.2-.8-.3c-.2-.1-.4-.3-.6-.5s-.2-.4-.2-.7h0c0,0,0-.1,0-.1h1.7s0,0,0,0h0c0,.2,0,.2.1.3s.2.1.3.2c.1,0,.2,0,.4,0s.2,0,.3,0c.1,0,.2,0,.3,0,0,0,.1-.1.1-.2s0-.2-.2-.2c-.1,0-.3,0-.4-.1-.2,0-.4,0-.6-.1-.2,0-.5,0-.7-.1s-.4-.1-.6-.3c-.2-.1-.4-.3-.5-.4-.1-.2-.2-.4-.2-.7s0-.6.2-.8c.1-.2.3-.4.5-.5s.5-.2.8-.3c.3,0,.6,0,.9,0s.6,0,.8,0c.3,0,.5.1.8.2s.4.3.5.5c.1.2.2.4.2.7h0c0,0,0,.1,0,.1h-1.7c0-.2,0-.2,0-.3,0,0-.1-.1-.3-.1-.1,0-.2,0-.3,0s0,0-.2,0-.2,0-.2,0-.1,0-.2,0,0,.1,0,.2,0,.1.1.2c0,0,.2,0,.3.1.1,0,.3,0,.4,0,.2,0,.5,0,.8.1.3,0,.5.1.8.2.2,0,.4.2.6.4.2.2.2.5.2.8s0,.6-.2.8c-.1.2-.3.4-.6.5-.2.1-.5.2-.8.3-.3,0-.6,0-1,0Z"></path>
          <path d="M96.8,46.5v-1.3h1.8v1.3h-1.8ZM96.8,52v-4.9h1.8v4.9h-1.8Z"></path>
          <path d="M100.5,53.9c-.2,0-.4,0-.6-.2-.2-.1-.3-.2-.5-.4s-.2-.4-.2-.6,0-.5.2-.7c.2-.2.3-.3.5-.4-.1-.1-.3-.2-.4-.4s-.1-.3-.1-.5c0-.2,0-.5.3-.7.2-.2.4-.3.7-.4-.2-.1-.4-.3-.6-.5-.2-.2-.2-.4-.2-.7,0-.4.1-.7.3-1,.2-.2.5-.4.9-.5.4,0,.8-.1,1.3-.1s.3,0,.5,0c.1,0,.2,0,.3,0,.3-.2.5-.3.6-.5.1-.2.2-.3.2-.4h1.5c0,.3,0,.5-.1.7,0,.2-.2.3-.4.4s-.4.2-.6.2c.2.1.3.3.4.5s.2.4.2.6c0,.4,0,.7-.3.9-.2.2-.4.4-.8.5-.3.1-.7.2-1,.2h-.7c-.2,0-.4,0-.5,0s-.1.1-.1.2,0,.1.1.2.2,0,.5,0h1.7c.6,0,1,.1,1.3.4.3.3.4.7.4,1.1s0,.6-.3.9c-.2.3-.4.4-.8.6-.3.1-.7.2-1,.2h-2.7ZM101.5,52.9h1.4c0,0,.2,0,.3,0s.1,0,.2-.2,0-.2,0-.2c0-.1,0-.3-.1-.3,0,0-.2-.1-.3-.1h-1.4c-.1,0-.3,0-.3.1,0,0-.1.2-.1.3s0,.3.1.3c0,0,.2.1.3.1ZM102.2,49.1c.2,0,.4,0,.5-.1.1,0,.2-.3.2-.5s0-.4-.2-.5c-.1,0-.3-.1-.5-.1s-.4,0-.5.1c-.1,0-.2.3-.2.5s0,.3,0,.3.1.2.2.2c.1,0,.2,0,.4,0Z"></path>
          <path d="M105.9,52v-4.9h1.5v.7h.2c.1-.2.3-.4.5-.5.2-.1.4-.2.6-.3.2,0,.4,0,.6,0,.4,0,.7,0,1,.2.3.1.4.4.6.6.1.3.2.6.2,1v3.2h-1.8v-3c0-.1,0-.2,0-.3,0,0,0-.2-.1-.2,0,0-.1-.1-.2-.1,0,0-.2,0-.3,0-.2,0-.3,0-.4.1-.1,0-.2.2-.3.3,0,.1,0,.2,0,.4v2.9h-1.8Z"></path>
          <path d="M113.9,53.9v-8.7h1.2v8.7h-1.2Z"></path>
          <path d="M118.1,53.8v-6.7h1.5l.2.7h0c.2-.3.4-.5.6-.6.3-.1.5-.2.9-.2s.8,0,1.1.3c.3.2.5.5.7.9.2.4.2.9.2,1.4s0,1-.2,1.4-.4.7-.7.8c-.3.2-.7.3-1.1.3s-.3,0-.5,0c-.2,0-.3,0-.4-.2-.1,0-.3-.2-.4-.3h0v2.3h-1.8ZM120.7,50.7c.2,0,.3,0,.5-.1s.2-.2.3-.3c0-.1,0-.3,0-.5v-.5c0-.2,0-.4,0-.5,0-.1-.1-.3-.3-.3s-.3-.1-.5-.1-.3,0-.5.1c-.1,0-.2.2-.3.4,0,.2,0,.3,0,.5v.3c0,.1,0,.3,0,.4,0,.1,0,.2.1.3s.1.2.3.2c.1,0,.2,0,.4,0Z"></path>
          <path d="M124.2,52v-4.9h1.5v.7h.2c0-.2.2-.3.3-.5s.3-.2.4-.3c.2,0,.3,0,.5,0s.2,0,.3,0,.2,0,.2,0v1.5h-.6c-.2,0-.4,0-.5,0-.1,0-.3.1-.3.2,0,.1-.1.2-.2.4,0,.1,0,.3,0,.5v2.2h-1.8Z"></path>
          <path d="M128.4,46.5v-1.3h1.8v1.3h-1.8ZM128.4,52v-4.9h1.8v4.9h-1.8Z"></path>
          <path d="M131.3,52v-4.9h1.5v.7h.2c.1-.2.3-.4.5-.5.2-.1.4-.2.6-.3.2,0,.4,0,.7,0,.4,0,.7,0,1,.2.2.1.4.4.6.6.1.3.2.6.2,1v3.2h-1.8v-3c0-.1,0-.2,0-.3,0,0,0-.2-.1-.2,0,0-.1-.1-.2-.1,0,0-.2,0-.3,0-.2,0-.3,0-.4.1s-.2.2-.3.3c0,.1,0,.2,0,.4v2.9h-1.8Z"></path>
          <path d="M139.6,52.1c-.3,0-.6,0-.9-.1s-.5-.2-.6-.4-.2-.5-.2-.8v-2.4h-.7v-1.3h.8l.4-1.5h1.4v1.5h1v1.3h-1v1.9c0,.2,0,.4.1.5s.2.2.4.2h.5v1.1c0,0-.2,0-.4,0-.1,0-.3,0-.4,0-.1,0-.3,0-.4,0Z"></path>
          <path d="M141.6,46.5v-1.3h1.8v1.3h-1.8ZM141.6,52v-4.9h1.8v4.9h-1.8Z"></path>
          <path d="M144.6,52v-4.9h1.5v.7h.2c.1-.2.3-.4.5-.5.2-.1.4-.2.6-.3.2,0,.4,0,.7,0,.4,0,.7,0,1,.2.2.1.4.4.6.6.1.3.2.6.2,1v3.2h-1.8v-3c0-.1,0-.2,0-.3,0,0,0-.2-.1-.2,0,0-.1-.1-.2-.1,0,0-.2,0-.3,0-.2,0-.3,0-.4.1s-.2.2-.3.3c0,.1,0,.2,0,.4v2.9h-1.8Z"></path>
          <path d="M151.5,53.9c-.2,0-.4,0-.6-.2-.2-.1-.3-.2-.5-.4s-.2-.4-.2-.6,0-.5.2-.7c.2-.2.3-.3.5-.4-.1-.1-.3-.2-.4-.4s-.1-.3-.1-.5c0-.2,0-.5.3-.7.2-.2.4-.3.7-.4-.2-.1-.4-.3-.6-.5s-.2-.4-.2-.7c0-.4.1-.7.3-1s.5-.4.9-.5c.4,0,.8-.1,1.3-.1s.3,0,.5,0c.1,0,.2,0,.3,0,.3-.2.5-.3.6-.5.1-.2.2-.3.2-.4h1.5c0,.3,0,.5-.1.7,0,.2-.2.3-.4.4-.2.1-.4.2-.6.2.2.1.3.3.4.5.1.2.2.4.2.6,0,.4,0,.7-.3.9-.2.2-.4.4-.8.5s-.7.2-1,.2h-.7c-.2,0-.4,0-.5,0s-.1.1-.1.2,0,.1.1.2.2,0,.5,0h1.7c.6,0,1,.1,1.3.4.3.3.4.7.4,1.1s0,.6-.3.9c-.2.3-.4.4-.8.6-.3.1-.7.2-1,.2h-2.7ZM152.5,52.9h1.4c0,0,.2,0,.3,0s.1,0,.2-.2,0-.2,0-.2c0-.1,0-.3-.1-.3,0,0-.2-.1-.3-.1h-1.4c-.1,0-.3,0-.3.1,0,0-.1.2-.1.3s0,.3.1.3c0,0,.2.1.3.1ZM153.3,49.1c.2,0,.4,0,.5-.1.1,0,.2-.3.2-.5s0-.4-.2-.5c-.1,0-.3-.1-.5-.1s-.4,0-.5.1c-.1,0-.2.3-.2.5s0,.3,0,.3.1.2.2.2c.1,0,.2,0,.4,0Z"></path>
          <path d="M158.7,53.9v-8.7h1.2v8.7h-1.2Z"></path>
          <path d="M164.7,52.1c-.4,0-.8,0-1.1-.3-.3-.2-.5-.5-.7-.9-.2-.4-.2-.9-.2-1.4s0-1,.2-1.4c.2-.4.4-.7.7-.8.3-.2.7-.3,1.1-.3s.3,0,.5,0c.2,0,.3.1.5.2.1,0,.3.2.3.3h0v-2.3h1.8v6.7h-1.5v-.7h-.2c-.2.3-.4.5-.6.6-.3.1-.6.2-.9.2ZM165.3,50.7c.2,0,.3,0,.5-.1.1,0,.2-.2.3-.4s0-.3,0-.5v-.3c0-.1,0-.3,0-.4,0-.1,0-.2-.1-.3,0,0-.1-.2-.3-.2s-.2,0-.4,0-.3,0-.5.1c-.1,0-.2.2-.3.3,0,.1,0,.3,0,.5v.5c0,.2,0,.4,0,.5,0,.1.1.3.3.3.1,0,.3.1.5.1Z"></path>
          <path d="M169.1,46.5v-1.3h1.8v1.3h-1.8ZM169.1,52v-4.9h1.8v4.9h-1.8Z"></path>
          <path d="M172.8,53.9c-.2,0-.4,0-.6-.2-.2-.1-.3-.2-.5-.4s-.2-.4-.2-.6,0-.5.2-.7c.2-.2.3-.3.5-.4-.1-.1-.3-.2-.4-.4s-.1-.3-.1-.5c0-.2,0-.5.3-.7.2-.2.4-.3.7-.4-.2-.1-.4-.3-.6-.5s-.2-.4-.2-.7c0-.4.1-.7.3-1s.5-.4.9-.5c.4,0,.8-.1,1.3-.1s.3,0,.5,0c.1,0,.2,0,.3,0,.3-.2.5-.3.6-.5.1-.2.2-.3.2-.4h1.5c0,.3,0,.5-.1.7,0,.2-.2.3-.4.4-.2.1-.4.2-.6.2.2.1.3.3.4.5.1.2.2.4.2.6,0,.4,0,.7-.3.9-.2.2-.4.4-.8.5s-.7.2-1,.2h-.7c-.2,0-.4,0-.5,0s-.1.1-.1.2,0,.1.1.2.2,0,.5,0h1.7c.6,0,1,.1,1.3.4.3.3.4.7.4,1.1s0,.6-.3.9c-.2.3-.4.4-.8.6-.3.1-.7.2-1,.2h-2.7ZM173.8,52.9h1.4c0,0,.2,0,.3,0s.1,0,.2-.2,0-.2,0-.2c0-.1,0-.3-.1-.3,0,0-.2-.1-.3-.1h-1.4c-.1,0-.3,0-.3.1,0,0-.1.2-.1.3s0,.3.1.3c0,0,.2.1.3.1ZM174.5,49.1c.2,0,.4,0,.5-.1.1,0,.2-.3.2-.5s0-.4-.2-.5c-.1,0-.3-.1-.5-.1s-.4,0-.5.1c-.1,0-.2.3-.2.5s0,.3,0,.3.1.2.2.2c.1,0,.2,0,.4,0Z"></path>
          <path d="M178.2,46.5v-1.3h1.8v1.3h-1.8ZM178.2,52v-4.9h1.8v4.9h-1.8Z"></path>
          <path d="M183.3,52.1c-.3,0-.6,0-.9-.1s-.5-.2-.6-.4-.2-.5-.2-.8v-2.4h-.7v-1.3h.8l.4-1.5h1.4v1.5h1v1.3h-1v1.9c0,.2,0,.4.1.5s.2.2.4.2h.5v1.1c0,0-.2,0-.4,0-.1,0-.3,0-.4,0-.1,0-.3,0-.4,0Z"></path>
          <path d="M186.8,52.1c-.3,0-.5,0-.7,0-.2,0-.4-.1-.5-.2s-.3-.2-.4-.4c0-.2-.1-.4-.1-.6,0-.4,0-.7.2-.9.2-.2.4-.4.7-.5s.6-.2,1.1-.3c.4,0,.9,0,1.4,0v-.2c0-.1,0-.2,0-.3,0,0-.1-.1-.3-.2-.1,0-.2,0-.4,0s-.2,0-.3,0-.2,0-.3.1c0,0-.1.1-.1.3h0s-1.8,0-1.8,0c0,0,0,0,0,0h0c0-.4,0-.6.3-.9.2-.2.5-.4.9-.5.4-.1.8-.2,1.4-.2s.9,0,1.3.1c.4,0,.7.3.9.5.2.2.4.5.4,1v1.9c0,0,0,.2,0,.3,0,0,.1.1.2.1h.3v1.1c0,0-.2,0-.4.1-.2,0-.4,0-.6,0s-.5,0-.6,0-.3-.1-.5-.2-.2-.2-.2-.3h0c-.1.1-.3.2-.5.3s-.4.2-.6.2c-.2,0-.5,0-.7,0ZM187.5,50.9c.1,0,.2,0,.3,0,.1,0,.2,0,.3-.1s.2-.1.2-.2c0,0,0-.2,0-.3v-.4c-.4,0-.7,0-.9,0-.2,0-.4.1-.5.2-.1,0-.2.2-.2.3s0,.2,0,.3c0,0,.1.1.2.1s.2,0,.3,0Z"></path>
          <path d="M191.5,52v-6.7h1.8v6.7h-1.8Z"></path>
          <path d="M198.4,52.1c-.3,0-.6,0-.9,0s-.6-.2-.8-.3c-.2-.1-.4-.3-.6-.5s-.2-.4-.2-.7h0c0,0,0-.1,0-.1h1.7s0,0,0,0h0c0,.2,0,.2.1.3,0,0,.2.1.3.2.1,0,.2,0,.4,0s.2,0,.3,0c.1,0,.2,0,.3,0,0,0,.1-.1.1-.2s0-.2-.2-.2c-.1,0-.3,0-.4-.1-.2,0-.4,0-.6-.1-.2,0-.5,0-.7-.1s-.4-.1-.6-.3c-.2-.1-.4-.3-.5-.4-.1-.2-.2-.4-.2-.7s0-.6.2-.8c.1-.2.3-.4.5-.5.2-.1.5-.2.8-.3.3,0,.6,0,.9,0s.6,0,.8,0c.3,0,.5.1.8.2.2.1.4.3.5.5s.2.4.2.7h0c0,0,0,.1,0,.1h-1.7c0-.2,0-.2,0-.3,0,0-.1-.1-.2-.1-.1,0-.2,0-.3,0s0,0-.2,0-.1,0-.2,0c0,0-.1,0-.2,0s0,.1,0,.2,0,.1.1.2c0,0,.2,0,.3.1.1,0,.3,0,.4,0,.2,0,.5,0,.8.1.3,0,.5.1.8.2s.4.2.6.4c.2.2.2.5.2.8s0,.6-.2.8c-.1.2-.3.4-.6.5s-.5.2-.8.3c-.3,0-.6,0-1,0Z"></path>
          <path d="M201.8,46.5v-1.3h1.8v1.3h-1.8ZM201.8,52v-4.9h1.8v4.9h-1.8Z"></path>
          <path d="M205.5,53.9c-.2,0-.4,0-.6-.2-.2-.1-.3-.2-.5-.4s-.2-.4-.2-.6,0-.5.2-.7c.2-.2.3-.3.5-.4-.1-.1-.3-.2-.4-.4s-.1-.3-.1-.5c0-.2,0-.5.3-.7.2-.2.4-.3.7-.4-.2-.1-.4-.3-.6-.5s-.2-.4-.2-.7c0-.4.1-.7.3-1s.5-.4.9-.5c.4,0,.8-.1,1.3-.1s.3,0,.5,0c.1,0,.2,0,.3,0,.3-.2.5-.3.6-.5.1-.2.2-.3.2-.4h1.5c0,.3,0,.5-.1.7,0,.2-.2.3-.4.4-.2.1-.4.2-.6.2.2.1.3.3.4.5.1.2.2.4.2.6,0,.4,0,.7-.3.9-.2.2-.4.4-.8.5s-.7.2-1,.2h-.7c-.2,0-.4,0-.5,0s-.1.1-.1.2,0,.1.1.2.2,0,.5,0h1.7c.6,0,1,.1,1.3.4.3.3.4.7.4,1.1s0,.6-.3.9c-.2.3-.4.4-.8.6-.3.1-.7.2-1,.2h-2.7ZM206.5,52.9h1.4c0,0,.2,0,.3,0s.1,0,.2-.2,0-.2,0-.2c0-.1,0-.3-.1-.3,0,0-.2-.1-.3-.1h-1.4c-.1,0-.3,0-.3.1,0,0-.1.2-.1.3s0,.3.1.3c0,0,.2.1.3.1ZM207.2,49.1c.2,0,.4,0,.5-.1.1,0,.2-.3.2-.5s0-.4-.2-.5c-.1,0-.3-.1-.5-.1s-.4,0-.5.1c-.1,0-.2.3-.2.5s0,.3,0,.3.1.2.2.2c.1,0,.2,0,.4,0Z"></path>
          <path d="M210.9,52v-4.9h1.5v.7h.2c.1-.2.3-.4.5-.5.2-.1.4-.2.6-.3.2,0,.4,0,.7,0,.4,0,.7,0,1,.2.2.1.4.4.6.6.1.3.2.6.2,1v3.2h-1.8v-3c0-.1,0-.2,0-.3,0,0,0-.2-.1-.2,0,0-.1-.1-.2-.1,0,0-.2,0-.3,0-.2,0-.3,0-.4.1s-.2.2-.3.3c0,.1,0,.2,0,.4v2.9h-1.8Z"></path>
          <path d="M218.6,52.1c-.3,0-.5,0-.7,0-.2,0-.4-.1-.5-.2s-.3-.2-.4-.4c0-.2-.1-.4-.1-.6,0-.4,0-.7.2-.9.2-.2.4-.4.7-.5s.6-.2,1.1-.3c.4,0,.9,0,1.4,0v-.2c0-.1,0-.2,0-.3,0,0-.1-.1-.3-.2-.1,0-.2,0-.4,0s-.2,0-.3,0-.2,0-.3.1c0,0-.1.1-.1.3h0s-1.8,0-1.8,0c0,0,0,0,0,0h0c0-.4,0-.6.3-.9.2-.2.5-.4.9-.5.4-.1.8-.2,1.4-.2s.9,0,1.3.1c.4,0,.7.3.9.5.2.2.4.5.4,1v1.9c0,0,0,.2,0,.3,0,0,.1.1.2.1h.3v1.1c0,0-.2,0-.4.1-.2,0-.4,0-.6,0s-.5,0-.6,0-.3-.1-.5-.2-.2-.2-.2-.3h0c-.1.1-.3.2-.5.3s-.4.2-.6.2c-.2,0-.5,0-.7,0ZM219.3,50.9c.1,0,.2,0,.3,0,.1,0,.2,0,.3-.1s.2-.1.2-.2c0,0,0-.2,0-.3v-.4c-.4,0-.7,0-.9,0-.2,0-.4.1-.5.2-.1,0-.2.2-.2.3s0,.2,0,.3c0,0,.1.1.2.1s.2,0,.3,0Z"></path>
          <path d="M224.1,53.9c-.2,0-.4,0-.6-.2-.2-.1-.3-.2-.5-.4s-.2-.4-.2-.6,0-.5.2-.7c.2-.2.3-.3.5-.4-.1-.1-.3-.2-.4-.4s-.1-.3-.1-.5c0-.2,0-.5.3-.7.2-.2.4-.3.7-.4-.2-.1-.4-.3-.6-.5s-.2-.4-.2-.7c0-.4.1-.7.3-1s.5-.4.9-.5c.4,0,.8-.1,1.3-.1s.3,0,.5,0c.1,0,.2,0,.3,0,.3-.2.5-.3.6-.5.1-.2.2-.3.2-.4h1.5c0,.3,0,.5-.1.7,0,.2-.2.3-.4.4-.2.1-.4.2-.6.2.2.1.3.3.4.5.1.2.2.4.2.6,0,.4,0,.7-.3.9-.2.2-.4.4-.8.5s-.7.2-1,.2h-.7c-.2,0-.4,0-.5,0s-.1.1-.1.2,0,.1.1.2.2,0,.5,0h1.7c.6,0,1,.1,1.3.4.3.3.4.7.4,1.1s0,.6-.3.9c-.2.3-.4.4-.8.6-.3.1-.7.2-1,.2h-2.7ZM225.1,52.9h1.4c0,0,.2,0,.3,0s.1,0,.2-.2,0-.2,0-.2c0-.1,0-.3-.1-.3,0,0-.2-.1-.3-.1h-1.4c-.1,0-.3,0-.3.1,0,0-.1.2-.1.3s0,.3.1.3c0,0,.2.1.3.1ZM225.8,49.1c.2,0,.4,0,.5-.1.1,0,.2-.3.2-.5s0-.4-.2-.5c-.1,0-.3-.1-.5-.1s-.4,0-.5.1c-.1,0-.2.3-.2.5s0,.3,0,.3.1.2.2.2c.1,0,.2,0,.4,0Z"></path>
          <path d="M232.1,52.1c-.6,0-1.1,0-1.5-.3-.4-.2-.8-.5-1-.8-.2-.4-.3-.9-.3-1.4s.1-1.1.3-1.4c.2-.4.5-.7,1-.8s.9-.3,1.5-.3,1.1,0,1.5.3c.4.2.7.5.9.8.2.4.3.9.3,1.4v.3h-3.7c0,.2,0,.4,0,.6,0,.2.2.3.3.4.1,0,.3.1.6.1s.3,0,.4,0,.2,0,.3-.2c0,0,.1-.1.2-.2s0-.2,0-.3h1.8c0,.3,0,.6-.2.8-.1.2-.3.4-.5.6s-.5.3-.8.4-.7.1-1.2.1ZM231.1,49h1.8c0-.1,0-.2,0-.3,0-.1,0-.2-.2-.3s-.2-.1-.3-.2c-.1,0-.2,0-.3,0-.2,0-.4,0-.5.1-.1,0-.2.2-.3.3,0,.1-.1.3-.1.4Z"></path>
        </g>
        <g>
          <path class="cls-3" d="M98.8,30.9h16.2v9.3h-35.9v-4.6l15.4-22.8h-14.5V3.7h34.4v4.4l-15.6,22.8Z"></path>
          <path class="cls-3" d="M144.9,40.2l-.8-5.4c-1.5,2.1-3.3,3.5-5.6,4.8-2.3,1.2-4.8,1.7-7.5,1.7-4.4,0-7.5-1.2-9.5-3.5s-3.1-5.8-3.1-10.2V3.7h13.9v22.2c0,1.7.4,2.9,1.2,3.7.8.8,1.9,1.5,3.5,1.5s3.1-.6,4.1-1.7,1.7-2.5,1.7-4.1V3.7h13.9v36.7l-11.8-.2h0Z"></path>
          <path class="cls-3" d="M193.7,6.4c2.1,2.3,3.1,5.8,3.1,10.2v23.9h-13.9v-22.2c0-1.7-.4-2.9-1.2-3.7s-1.9-1.5-3.5-1.5-3.1.6-4.1,1.7-1.7,2.5-1.7,4.1v21.6h-13.9V3.7h11.4l1.2,5.4c1.5-1.9,3.3-3.5,5.6-4.6s4.8-1.7,7.5-1.7c4.1-.2,7.5,1,9.5,3.5Z"></path>
          <path class="cls-3" d="M232.9,5.6c3.5,1.9,5.2,5,5.2,9.1v14.3c0,.8.2,1.5.6,1.9.4.6.8.8,1.7.8h2.5v7.9c-.2,0-.4.2-1,.4s-1.5.4-2.5.6c-1,.2-2.3.2-3.7.2-2.7,0-5-.4-6.6-1.2-1.9-.8-2.9-1.9-3.5-3.3-1.9,1.5-3.7,2.5-5.8,3.3s-4.8,1.2-7.7,1.2c-8.5,0-12.9-3.3-12.9-10.4s1-6.2,2.9-8.1,4.8-3.1,8.3-3.9c3.7-.6,8.3-1,14.1-1v-1.5c0-1.5-.4-2.5-1.5-3.3s-2.3-1-3.9-1-2.7.2-3.7.8-1.7,1.2-1.7,2.5v.2h-13.7v-1c0-3.5,1.7-6.2,5-8.3s8.1-3.1,14.3-3.1c5.6,0,10.2,1,13.7,2.9ZM215.6,25.7c-1.9.8-2.7,2.1-2.7,3.5,0,2.3,1.7,3.5,4.8,3.5s3.3-.4,4.8-1.5c1.5-1,2.1-2.1,2.1-3.7v-3.1c-4.1,0-7.1.2-8.9,1.2Z"></path>
          <g>
            <path d="M31,29.1c-.6.9-1.4,1.6-2.4,2.1-1,.5-2.3.7-3.9.7s-3-.3-4.1-.9c-1-.6-1.8-1.5-2.3-2.7-.2-.4-.3-.9-.4-1.3-.2-.9-.3-1.8-.3-2.8v-4c0-1.2.1-2.2.4-3.2,0-.4.2-.7.3-1.1.5-1.2,1.2-2.1,2.2-2.7,1-.6,2.3-.9,3.9-.9s2.7.2,3.7.7c1,.4,1.8,1.1,2.3,2.1.5.9.8,2.1.8,3.5h13.4c0-2.8-.5-5.2-1.6-7.2-1-2-2.5-3.6-4.4-4.9-1.8-1.3-4-2.2-6.5-2.8-2.4-.6-5.1-.9-7.9-.9-4.2,0-7.8.7-10.9,2.1s-5.5,3.5-7.2,6.4c-1,1.6-1.7,3.5-2.1,5.6-.3,1.5-.4,3.1-.5,4.8,0,0,0,.2,0,.3,0,1.7.1,3.4.4,4.9.4,2.2,1.1,4.1,2.1,5.8,1.7,2.9,4.1,5,7.2,6.4s6.7,2.1,10.9,2.1,5.4-.3,7.9-.9c2.5-.6,4.6-1.5,6.5-2.8,1.9-1.2,3.3-2.9,4.4-4.9,1-2,1.6-4.4,1.6-7.2h-12.9c0,1.5-.3,2.7-.8,3.7Z"></path>
            <path class="cls-3" d="M72.5,7.7c-3.7-3.3-8.7-5-15.1-5s-11.4,1.7-15.1,5c-3.7,3.3-5.4,8.1-5.4,14.3s1.9,11,5.4,14.3,8.7,5,15.1,5,11.6-1.7,15.1-5c3.7-3.3,5.6-8.1,5.6-14.3s-1.9-11-5.6-14.3ZM57.1,31.1c-5,0-9.1-3.9-9.1-9.1s3.9-9.1,9.1-9.1,9.1,3.9,9.1,9.1-.6,4.4-2.3,6l2.9,3.1h-9.8Z"></path>
            <g class="cls-2">
              <path d="M31,29.1c-.6.9-1.4,1.6-2.4,2.1-1,.5-2.3.7-3.9.7s-3-.3-4.1-.9c-1-.6-1.8-1.5-2.3-2.7-.2-.4-.3-.9-.4-1.3-.2-.9-.3-1.8-.3-2.8v-4c0-1.2.1-2.2.4-3.2,0-.4.2-.7.3-1.1.5-1.2,1.2-2.1,2.2-2.7,1-.6,2.3-.9,3.9-.9s2.7.2,3.7.7c1,.4,1.8,1.1,2.3,2.1.5.9.8,2.1.8,3.5h13.4c0-2.8-.5-5.2-1.6-7.2-1-2-2.5-3.6-4.4-4.9-1.8-1.3-4-2.2-6.5-2.8-2.4-.6-5.1-.9-7.9-.9-4.2,0-7.8.7-10.9,2.1s-5.5,3.5-7.2,6.4c-1,1.6-1.7,3.5-2.1,5.6-.3,1.5-.4,3.1-.5,4.8,0,0,0,.2,0,.3,0,1.7.1,3.4.4,4.9.4,2.2,1.1,4.1,2.1,5.8,1.7,2.9,4.1,5,7.2,6.4s6.7,2.1,10.9,2.1,5.4-.3,7.9-.9c2.5-.6,4.6-1.5,6.5-2.8,1.9-1.2,3.3-2.9,4.4-4.9,1-2,1.6-4.4,1.6-7.2h-12.9c0,1.5-.3,2.7-.8,3.7Z"></path>
            </g>
          </g>
        </g>
      </g>
    </g>
  </g>
  <metadata></metadata>
</svg>
